<?xml version="1.0" encoding="utf-8"?>
<svg width="80.118" height="68.618" viewBox="0 0 80.118 68.618" fill="none" xmlns="http://www.w3.org/2000/svg">
  <g transform="translate(0 1.118)">
    <path d="M0 23L14 23C19.5242 20.8633 18.3468 0 22.0968 0C25.8468 0 24.2742 20.8633 32 23L53 23" fill="none" stroke-width="1" stroke="#808080" transform="translate(15 25)" />
    <line x1="0" y1="0" x2="53" y2="0" fill="none" stroke-width="1" stroke="#BDBDBD" stroke-linecap="square" transform="translate(15 25.5)" />
    <g fill="none" stroke-width="1" stroke="#000000" transform="translate(15 0)">
      <path d="M4 8L0 0L-4 8" />
      <line x1="0" y1="67" x2="0" y2="0" />
    </g>
    <g fill="none" stroke-width="1" stroke="#000000" transform="translate(6 62)">
      <path d="M65 4L73 0L65 -4" />
      <line x1="0" y1="0" x2="73" y2="0" />
    </g>
    <path d="M3.11328 4.5293L3.11328 5.1543L0.568359 5.1543L0.568359 4.5293L3.11328 4.5293ZM4.2832 7.75L6.88672 2.60156L6.88672 2.55664L3.88672 2.55664L3.88672 1.93164L7.61328 1.93164L7.61328 2.5918L5.02344 7.75L4.2832 7.75ZM10.4432 7.83008Q9.48029 7.83008 8.94904 7.04883Q8.41974 6.26758 8.41974 4.8418Q8.41974 3.42578 8.95295 2.63867Q9.4881 1.85156 10.4432 1.85156Q11.3983 1.85156 11.9315 2.63867Q12.4666 3.42578 12.4666 4.8418Q12.4666 6.26758 11.9354 7.04883Q11.4061 7.83008 10.4432 7.83008ZM10.4432 7.20508Q11.0799 7.20508 11.4315 6.5918Q11.785 5.97656 11.785 4.8418Q11.785 3.70703 11.4295 3.08789Q11.074 2.4668 10.4432 2.4668Q9.81232 2.4668 9.45685 3.08789Q9.10139 3.70703 9.10139 4.8418Q9.10139 5.97656 9.4549 6.5918Q9.81037 7.20508 10.4432 7.20508Z" fill="#FFFFFF" transform="translate(0 42)" />
    <path d="M3.11328 4.5293L3.11328 5.1543L0.568359 5.1543L0.568359 4.5293L3.11328 4.5293ZM4.14861 6.55664L4.14861 5.97656L6.70526 1.93164L7.55682 1.93164L7.55682 5.93164L8.35174 5.93164L8.35174 6.55664L7.55682 6.55664L7.55682 7.75L6.8869 7.75L6.8869 6.55664L4.14861 6.55664ZM6.8869 5.93164L6.8869 2.83008L6.84002 2.83008L4.90838 5.88672L4.90838 5.93164L6.8869 5.93164ZM11.3182 7.83008Q10.3553 7.83008 9.82404 7.04883Q9.29474 6.26758 9.29474 4.8418Q9.29474 3.42578 9.82795 2.63867Q10.3631 1.85156 11.3182 1.85156Q12.2733 1.85156 12.8065 2.63867Q13.3416 3.42578 13.3416 4.8418Q13.3416 6.26758 12.8104 7.04883Q12.2811 7.83008 11.3182 7.83008ZM11.3182 7.20508Q11.9549 7.20508 12.3065 6.5918Q12.66 5.97656 12.66 4.8418Q12.66 3.70703 12.3045 3.08789Q11.949 2.4668 11.3182 2.4668Q10.6873 2.4668 10.3319 3.08789Q9.97639 3.70703 9.97639 4.8418Q9.97639 5.97656 10.3299 6.5918Q10.6854 7.20508 11.3182 7.20508Z" fill="#FFFFFF" transform="translate(0 20)" />
  </g>
</svg>