<?xml version="1.0" encoding="utf-8"?>
<svg width="603" height="154" viewBox="0 0 603 154" fill="none" xmlns="http://www.w3.org/2000/svg">
  <defs>
    <clipPath id="clip_path_1">
      <rect width="603" height="154" rx="10" />
    </clipPath>
    <clipPath id="clip_path_2">
      <rect width="161.32" height="154" rx="15" />
    </clipPath>
    <clipPath id="clip_path_3">
      <rect width="425" height="154" rx="15" />
    </clipPath>
  </defs>
  <g clip-path="url(#clip_path_1)">
    <g clip-path="url(#clip_path_2)" transform="translate(442 0)">
      <rect width="161.32" height="154" fill="#D3D3D3" fill-rule="evenodd" />
      <g transform="translate(25 22)">
        <g transform="translate(0 43)">
          <g fill="none" stroke-width="1" stroke="#000000" transform="translate(9 0)">
            <path d="M4 8L0 0L-4 8" />
            <line x1="0" y1="67" x2="0" y2="0" />
          </g>
          <g fill="none" stroke-width="1" stroke="#000000" transform="translate(0 62)">
            <path d="M65 4L73 0L65 -4" />
            <line x1="0" y1="0" x2="73" y2="0" />
          </g>
          <line x1="0" y1="0" x2="53.5" y2="0" fill="none" stroke-width="1" stroke="#BDBDBD" stroke-linecap="square" stroke-linejoin="round" transform="translate(9 34)" />
          <line x1="0" y1="0" x2="53" y2="0" fill="none" stroke-width="1" stroke="#8ABCDE" stroke-linecap="square" stroke-linejoin="round" transform="translate(9 46.5)" />
        </g>
        <path d="M0.630615 14.5954Q0.630615 12.3908 1.52271 10.6682Q2.41479 8.94551 4.0708 7.99189Q5.73193 7.03315 7.97754 7.03315Q9.9104 7.03315 11.4331 7.76118Q12.9558 8.48408 13.9094 9.80684Q14.8682 11.1296 15.1809 12.8933L10.2693 12.8933Q9.93091 12.1601 9.31055 11.75Q8.69531 11.3398 7.89551 11.3398Q6.72144 11.3398 6.03442 12.2216Q5.35254 13.1035 5.35254 14.5954Q5.35254 16.0874 6.03442 16.9692Q6.72144 17.851 7.89551 17.851Q8.69531 17.851 9.31055 17.4409Q9.93091 17.0307 10.2693 16.2976L15.1809 16.2976Q14.8682 18.0612 13.9094 19.384Q12.9558 20.7067 11.4331 21.4296Q9.9104 22.1525 7.97754 22.1525Q5.73193 22.1525 4.0708 21.1989Q2.41479 20.2453 1.52271 18.5227Q0.630615 16.8 0.630615 14.5954ZM16.2334 16.1284Q16.2334 14.257 16.8743 12.883Q17.5151 11.509 18.6277 10.7861Q19.7402 10.0581 21.1245 10.0581Q22.2832 10.0581 23.1189 10.5349Q23.9597 11.0065 24.4006 11.8217L24.4006 10.2067L29.0405 10.2067L29.0405 22.05L24.4006 22.05L24.4006 20.435Q23.9597 21.2502 23.1189 21.727Q22.2832 22.1987 21.1245 22.1987Q19.7402 22.1987 18.6277 21.4758Q17.5151 20.7478 16.8743 19.3737Q16.2334 17.9946 16.2334 16.1284ZM24.4006 16.1284Q24.4006 15.185 23.9187 14.6621Q23.4368 14.134 22.678 14.134Q21.9243 14.134 21.4424 14.6621Q20.9605 15.185 20.9605 16.1284Q20.9605 17.0717 21.4424 17.5998Q21.9243 18.1228 22.678 18.1228Q23.4368 18.1228 23.9187 17.5998Q24.4006 17.0717 24.4006 16.1284ZM36.4145 22.1987Q34.7329 22.1987 33.4409 21.6552Q32.1489 21.1066 31.3901 20.1428Q30.6365 19.1738 30.5339 17.9536L35.0046 17.9536Q35.0918 18.4816 35.4558 18.7329Q35.8249 18.9841 36.394 18.9841Q36.7478 18.9841 36.958 18.8303Q37.1682 18.6713 37.1682 18.4355Q37.1682 18.0407 36.7273 17.8715Q36.2864 17.7023 35.2405 17.4921Q33.9587 17.2409 33.1282 16.9487Q32.2976 16.6513 31.6772 15.9387Q31.0569 15.226 31.0569 13.9648Q31.0569 12.8728 31.6362 11.9807Q32.2156 11.0886 33.3486 10.5759Q34.4817 10.0581 36.0967 10.0581Q38.4909 10.0581 39.8445 11.2373Q41.2031 12.4113 41.4748 14.3032L37.3374 14.3032Q37.2348 13.8161 36.8965 13.5546Q36.5632 13.2932 35.9941 13.2932Q35.6352 13.2932 35.4455 13.4316Q35.261 13.5649 35.261 13.8366Q35.261 14.1955 35.7019 14.375Q36.1428 14.5544 37.1067 14.7441Q38.3884 14.9953 39.2702 15.3132Q40.1521 15.6259 40.8032 16.395Q41.4543 17.1589 41.4543 18.5021Q41.4543 19.5532 40.8442 20.394Q40.2341 21.2297 39.0908 21.7167Q37.9475 22.1987 36.4145 22.1987ZM46.914 19.7377L46.914 15.8566L53.174 6.93061L58.1933 6.93061L58.1933 15.708L59.7007 15.708L59.7007 19.7377L58.1933 19.7377L58.1933 22.05L53.4868 22.05L53.4868 19.7377L46.914 19.7377ZM53.8662 12.2421L51.5949 15.708L53.8662 15.708L53.8662 12.2421Z" fill="#000000" transform="translate(3 0)" />
        <path d="M2.61523 8.45664Q1.59961 8.45664 0.939453 7.98008Q0.279297 7.50352 0.224609 6.58359L2.11133 6.58359Q2.15234 7.07188 2.54492 7.07188Q2.6875 7.07188 2.78711 7.00352Q2.88867 6.93516 2.88867 6.79258Q2.88867 6.59141 2.67188 6.46836Q2.45508 6.34336 2 6.1832Q1.45508 5.9918 1.09961 5.8082Q0.744141 5.62461 0.488281 5.27305Q0.232422 4.91953 0.240234 4.36875Q0.240234 3.81602 0.523438 3.4293Q0.808594 3.04063 1.30078 2.84141Q1.79297 2.64023 2.4082 2.64023Q3.44727 2.64023 4.05859 3.1207Q4.67188 3.59922 4.70312 4.47227L2.79297 4.47227Q2.7832 4.23203 2.67188 4.12852Q2.56055 4.02305 2.40039 4.02305Q2.28711 4.02305 2.21484 4.09922Q2.14453 4.17539 2.14453 4.31211Q2.14453 4.50352 2.35547 4.62852Q2.56836 4.75156 3.03125 4.92734Q3.56836 5.12852 3.91602 5.31211Q4.26367 5.4957 4.51953 5.82383Q4.77539 6.15195 4.77539 6.64805Q4.77539 7.16758 4.51953 7.57969Q4.26367 7.9918 3.77539 8.22422Q3.28711 8.45664 2.61523 8.45664ZM7.54492 8.45664Q6.86328 8.45664 6.31836 8.17734Q5.77539 7.89609 5.4668 7.37266Q5.16016 6.84727 5.16016 6.14414Q5.16016 5.43906 5.4668 4.91563Q5.77539 4.39219 6.31836 4.11289Q6.86328 3.83164 7.54492 3.83164Q8.22461 3.83164 8.76758 4.11289Q9.3125 4.39219 9.61914 4.91563Q9.92773 5.43906 9.92773 6.14414Q9.92773 6.84727 9.61914 7.37266Q9.3125 7.89609 8.76758 8.17734Q8.22461 8.45664 7.54492 8.45664ZM7.54492 6.91953Q7.79297 6.91953 7.96094 6.72422Q8.12891 6.52891 8.12891 6.14414Q8.12891 5.75938 7.96094 5.56406Q7.79297 5.36875 7.54492 5.36875Q7.29688 5.36875 7.12891 5.56406Q6.96094 5.75938 6.96094 6.14414Q6.96094 6.52891 7.12305 6.72422Q7.28711 6.91953 7.54492 6.91953ZM16.5118 3.85508Q17.3751 3.85508 17.8517 4.37656Q18.3282 4.89609 18.3282 5.78477L18.3282 8.4L16.5607 8.4L16.5607 6.00742Q16.5607 5.72031 16.3888 5.55625Q16.2169 5.39219 15.9278 5.39219Q15.6329 5.39219 15.463 5.55625Q15.295 5.72031 15.295 6.00742L15.295 8.4L13.5275 8.4L13.5275 6.00742Q13.5275 5.72031 13.3556 5.55625Q13.1837 5.39219 12.8966 5.39219Q12.5997 5.39219 12.4318 5.55625Q12.2638 5.72031 12.2638 6.00742L12.2638 8.4L10.4884 8.4L10.4884 3.88828L12.2638 3.88828L12.2638 4.4957Q12.4552 4.20859 12.7872 4.03281Q13.1193 3.85508 13.5685 3.85508Q14.0568 3.85508 14.4318 4.06797Q14.8087 4.28086 15.0314 4.66367Q15.2794 4.31211 15.6642 4.08359Q16.0489 3.85508 16.5118 3.85508ZM25.1198 3.85508Q25.9831 3.85508 26.4597 4.37656Q26.9362 4.89609 26.9362 5.78477L26.9362 8.4L25.1687 8.4L25.1687 6.00742Q25.1687 5.72031 24.9968 5.55625Q24.8249 5.39219 24.5358 5.39219Q24.2409 5.39219 24.071 5.55625Q23.903 5.72031 23.903 6.00742L23.903 8.4L22.1355 8.4L22.1355 6.00742Q22.1355 5.72031 21.9636 5.55625Q21.7917 5.39219 21.5046 5.39219Q21.2077 5.39219 21.0398 5.55625Q20.8718 5.72031 20.8718 6.00742L20.8718 8.4L19.0964 8.4L19.0964 3.88828L20.8718 3.88828L20.8718 4.4957Q21.0632 4.20859 21.3952 4.03281Q21.7273 3.85508 22.1765 3.85508Q22.6648 3.85508 23.0398 4.06797Q23.4167 4.28086 23.6394 4.66367Q23.8874 4.31211 24.2722 4.08359Q24.6569 3.85508 25.1198 3.85508ZM27.4642 6.14414Q27.4642 5.43125 27.7083 4.90781Q27.9524 4.38438 28.3763 4.10898Q28.8001 3.83164 29.3274 3.83164Q29.7688 3.83164 30.0872 4.01328Q30.4075 4.19297 30.5755 4.50352L30.5755 3.88828L32.3431 3.88828L32.3431 8.4L30.5755 8.4L30.5755 7.78477Q30.4075 8.09531 30.0872 8.27695Q29.7688 8.45664 29.3274 8.45664Q28.8001 8.45664 28.3763 8.18125Q27.9524 7.90391 27.7083 7.38047Q27.4642 6.85508 27.4642 6.14414ZM30.5755 6.14414Q30.5755 5.78477 30.3919 5.58555Q30.2083 5.38438 29.9192 5.38438Q29.6321 5.38438 29.4485 5.58555Q29.2649 5.78477 29.2649 6.14414Q29.2649 6.50352 29.4485 6.70469Q29.6321 6.90391 29.9192 6.90391Q30.2083 6.90391 30.3919 6.70469Q30.5755 6.50352 30.5755 6.14414ZM35.951 6.88828L35.951 8.4L35.2792 8.4Q33.4237 8.4 33.4237 6.55234L33.4237 5.36875L32.8631 5.36875L32.8631 3.88828L33.4237 3.88828L33.4237 2.80039L35.1991 2.80039L35.1991 3.88828L35.9354 3.88828L35.9354 5.36875L35.1991 5.36875L35.1991 6.58359Q35.1991 6.74375 35.2752 6.81602Q35.3514 6.88828 35.5272 6.88828L35.951 6.88828ZM37.5289 3.52891Q37.064 3.52891 36.7828 3.28086Q36.5035 3.03281 36.5035 2.65586Q36.5035 2.27109 36.7828 2.01914Q37.064 1.76719 37.5289 1.76719Q37.984 1.76719 38.2632 2.01914Q38.5445 2.27109 38.5445 2.65586Q38.5445 3.03281 38.2632 3.28086Q37.984 3.52891 37.5289 3.52891ZM38.4078 3.88828L38.4078 8.4L36.6324 8.4L36.6324 3.88828L38.4078 3.88828ZM41.3529 8.45664Q40.6713 8.45664 40.1264 8.17734Q39.5834 7.89609 39.2748 7.37266Q38.9682 6.84727 38.9682 6.14414Q38.9682 5.43906 39.2748 4.91563Q39.5834 4.39219 40.1264 4.11289Q40.6713 3.83164 41.3529 3.83164Q42.0326 3.83164 42.5756 4.11289Q43.1205 4.39219 43.4271 4.91563Q43.7357 5.43906 43.7357 6.14414Q43.7357 6.84727 43.4271 7.37266Q43.1205 7.89609 42.5756 8.17734Q42.0326 8.45664 41.3529 8.45664ZM41.3529 6.91953Q41.601 6.91953 41.7689 6.72422Q41.9369 6.52891 41.9369 6.14414Q41.9369 5.75938 41.7689 5.56406Q41.601 5.36875 41.3529 5.36875Q41.1049 5.36875 40.9369 5.56406Q40.7689 5.75938 40.7689 6.14414Q40.7689 6.52891 40.931 6.72422Q41.0951 6.91953 41.3529 6.91953ZM47.4565 3.85508Q48.2319 3.85508 48.6675 4.37656Q49.103 4.89609 49.103 5.78477L49.103 8.4L47.3355 8.4L47.3355 6.00742Q47.3355 5.68711 47.1636 5.49961Q46.9917 5.31211 46.7046 5.31211Q46.4077 5.31211 46.2397 5.49961Q46.0718 5.68711 46.0718 6.00742L46.0718 8.4L44.2964 8.4L44.2964 3.88828L46.0718 3.88828L46.0718 4.57578Q46.2808 4.25547 46.6284 4.05625Q46.9761 3.85508 47.4565 3.85508Z" fill="#8ABCDE" transform="translate(66 83)" />
        <path d="M1.51172 3.57578L1.51172 5.20859L3.43164 5.20859L3.43164 5.95273L1.51172 5.95273L1.51172 7.65586L3.67188 7.65586L3.67188 8.4L0.599609 8.4L0.599609 2.83164L3.67188 2.83164L3.67188 3.57578L1.51172 3.57578ZM6.68028 6.16758L8.10411 8.4L7.07286 8.4L6.11973 6.90391L5.22325 8.4L4.27208 8.4L5.69591 6.23203L4.27208 3.9918L5.30333 3.9918L6.25645 5.48789L7.15294 3.9918L8.10411 3.9918L6.68028 6.16758ZM9.24845 3.40781Q9.00041 3.40781 8.83244 3.23984Q8.66447 3.07188 8.66447 2.82383Q8.66447 2.57578 8.83244 2.40781Q9.00041 2.23984 9.24845 2.23984Q9.48869 2.23984 9.65666 2.40781Q9.82463 2.57578 9.82463 2.82383Q9.82463 3.07188 9.65666 3.23984Q9.48869 3.40781 9.24845 3.40781ZM9.69572 3.9918L9.69572 8.4L8.78361 8.4L8.78361 3.9918L9.69572 3.9918ZM11.9601 4.73594L11.9601 7.17539Q11.9601 7.42344 12.0753 7.53281Q12.1925 7.64023 12.4718 7.64023L13.0323 7.64023L13.0323 8.4L12.3116 8.4Q11.6964 8.4 11.3683 8.11289Q11.0401 7.82383 11.0401 7.17539L11.0401 4.73594L10.5206 4.73594L10.5206 3.9918L11.0401 3.9918L11.0401 2.89609L11.9601 2.89609L11.9601 3.9918L13.0323 3.9918L13.0323 4.73594L11.9601 4.73594ZM13.5689 6.17539Q13.5689 5.51133 13.8443 4.99961Q14.1197 4.48789 14.5962 4.20469Q15.0728 3.91953 15.649 3.91953Q16.1685 3.91953 16.5552 4.12461Q16.9439 4.32773 17.1763 4.63242L17.1763 3.9918L18.0962 3.9918L18.0962 8.4L17.1763 8.4L17.1763 7.74375Q16.9439 8.05625 16.5435 8.26523Q16.1431 8.47227 15.6314 8.47227Q15.065 8.47227 14.5923 8.18125Q14.1197 7.88828 13.8443 7.36484Q13.5689 6.83945 13.5689 6.17539ZM17.1763 6.19297Q17.1763 5.73594 16.9868 5.4Q16.7993 5.06406 16.4947 4.88828Q16.1919 4.7125 15.8404 4.7125Q15.4888 4.7125 15.1841 4.88438Q14.8794 5.05625 14.6919 5.38828Q14.5044 5.72031 14.5044 6.17539Q14.5044 6.63242 14.6919 6.97617Q14.8794 7.31992 15.188 7.49961Q15.4966 7.6793 15.8404 7.6793Q16.1919 7.6793 16.4947 7.50352Q16.7993 7.32773 16.9868 6.98789Q17.1763 6.64805 17.1763 6.19297ZM20.3601 4.73594L20.3601 7.17539Q20.3601 7.42344 20.4753 7.53281Q20.5925 7.64023 20.8718 7.64023L21.4323 7.64023L21.4323 8.4L20.7116 8.4Q20.0964 8.4 19.7683 8.11289Q19.4401 7.82383 19.4401 7.17539L19.4401 4.73594L18.9206 4.73594L18.9206 3.9918L19.4401 3.9918L19.4401 2.89609L20.3601 2.89609L20.3601 3.9918L21.4323 3.9918L21.4323 4.73594L20.3601 4.73594ZM22.7365 3.40781Q22.4884 3.40781 22.3204 3.23984Q22.1525 3.07188 22.1525 2.82383Q22.1525 2.57578 22.3204 2.40781Q22.4884 2.23984 22.7365 2.23984Q22.9767 2.23984 23.1447 2.40781Q23.3126 2.57578 23.3126 2.82383Q23.3126 3.07188 23.1447 3.23984Q22.9767 3.40781 22.7365 3.40781ZM23.1837 3.9918L23.1837 8.4L22.2716 8.4L22.2716 3.9918L23.1837 3.9918ZM26.2957 8.47227Q25.6727 8.47227 25.1688 8.18906Q24.6649 7.90391 24.3758 7.38828Q24.0887 6.87266 24.0887 6.19297Q24.0887 5.51914 24.3836 4.99961Q24.6805 4.48008 25.1922 4.20078Q25.7039 3.91953 26.3367 3.91953Q26.9676 3.91953 27.4793 4.20078Q27.991 4.48008 28.2879 4.99961Q28.5848 5.51914 28.5848 6.19297Q28.5848 6.86484 28.2801 7.38438Q27.9754 7.90391 27.452 8.18906Q26.9285 8.47227 26.2957 8.47227ZM26.2957 7.6793Q26.6473 7.6793 26.9559 7.51133Q27.2645 7.34336 27.4559 7.00742Q27.6473 6.67148 27.6473 6.19297Q27.6473 5.7125 27.4637 5.38047Q27.2801 5.04844 26.9754 4.88047Q26.6727 4.7125 26.3192 4.7125Q25.9676 4.7125 25.6668 4.88047Q25.368 5.04844 25.1922 5.38047Q25.0164 5.7125 25.0164 6.19297Q25.0164 6.90391 25.3797 7.29258Q25.7449 7.6793 26.2957 7.6793ZM31.7122 3.91953Q32.2318 3.91953 32.6439 4.13633Q33.056 4.35117 33.2884 4.77695Q33.5208 5.20078 33.5208 5.80039L33.5208 8.4L32.6165 8.4L32.6165 5.93516Q32.6165 5.34336 32.3196 5.02891Q32.0247 4.7125 31.511 4.7125Q30.9993 4.7125 30.6985 5.02891Q30.3997 5.34336 30.3997 5.93516L30.3997 8.4L29.4876 8.4L29.4876 3.9918L30.3997 3.9918L30.3997 4.4957Q30.6243 4.22422 30.972 4.07188Q31.3196 3.91953 31.7122 3.91953ZM36.4569 6.17539Q36.4569 5.51133 36.7323 4.99961Q37.0077 4.48789 37.4842 4.20469Q37.9608 3.91953 38.5448 3.91953Q38.9764 3.91953 39.3963 4.10898Q39.8162 4.29648 40.0643 4.60703L40.0643 2.48008L40.9842 2.48008L40.9842 8.4L40.0643 8.4L40.0643 7.73594Q39.8397 8.05625 39.4432 8.26523Q39.0487 8.47227 38.537 8.47227Q37.9608 8.47227 37.4842 8.18125Q37.0077 7.88828 36.7323 7.36484Q36.4569 6.83945 36.4569 6.17539ZM40.0643 6.19297Q40.0643 5.73594 39.8748 5.4Q39.6873 5.06406 39.3827 4.88828Q39.0799 4.7125 38.7284 4.7125Q38.3768 4.7125 38.0721 4.88438Q37.7674 5.05625 37.5799 5.38828Q37.3924 5.72031 37.3924 6.17539Q37.3924 6.63242 37.5799 6.97617Q37.7674 7.31992 38.076 7.49961Q38.3846 7.6793 38.7284 7.6793Q39.0799 7.6793 39.3827 7.50352Q39.6873 7.32773 39.8748 6.98789Q40.0643 6.64805 40.0643 6.19297ZM46.2246 6.0875Q46.2246 6.33555 46.1914 6.53672L42.8242 6.53672Q42.8633 7.06406 43.2149 7.38438Q43.5684 7.70469 44.0801 7.70469Q44.8164 7.70469 45.1192 7.0875L46.1035 7.0875Q45.9043 7.69688 45.3789 8.08555Q44.8555 8.47227 44.0801 8.47227Q43.4473 8.47227 42.9473 8.18906Q42.4473 7.90391 42.1641 7.38828Q41.8809 6.87266 41.8809 6.19297Q41.8809 5.51133 42.1563 4.9957Q42.4317 4.48008 42.9317 4.20078Q43.4317 3.91953 44.0801 3.91953Q44.7031 3.91953 45.1914 4.19297Q45.6797 4.46445 45.9512 4.95664Q46.2246 5.44883 46.2246 6.0875ZM45.2715 5.80039Q45.2637 5.29648 44.9121 4.9918Q44.5606 4.68711 44.0391 4.68711Q43.5684 4.68711 43.2324 4.98789Q42.8965 5.28867 42.832 5.80039L45.2715 5.80039ZM52.5512 7.26328L50.223 7.26328L49.8246 8.4L48.8715 8.4L50.8637 2.83164L51.9203 2.83164L53.9125 8.4L52.9516 8.4L52.5512 7.26328ZM52.2953 6.51914L51.393 3.93516L50.4809 6.51914L52.2953 6.51914ZM60.8966 6.0875Q60.8966 6.33555 60.8634 6.53672L57.4962 6.53672Q57.5353 7.06406 57.8869 7.38438Q58.2404 7.70469 58.7521 7.70469Q59.4884 7.70469 59.7912 7.0875L60.7755 7.0875Q60.5763 7.69688 60.0509 8.08555Q59.5275 8.47227 58.7521 8.47227Q58.1193 8.47227 57.6193 8.18906Q57.1193 7.90391 56.8361 7.38828Q56.5529 6.87266 56.5529 6.19297Q56.5529 5.51133 56.8283 4.9957Q57.1037 4.48008 57.6037 4.20078Q58.1037 3.91953 58.7521 3.91953Q59.3751 3.91953 59.8634 4.19297Q60.3517 4.46445 60.6232 4.95664Q60.8966 5.44883 60.8966 6.0875ZM59.9435 5.80039Q59.9357 5.29648 59.5841 4.9918Q59.2326 4.68711 58.7111 4.68711Q58.2404 4.68711 57.9044 4.98789Q57.5685 5.28867 57.5041 5.80039L59.9435 5.80039ZM62.8561 4.73594L62.8561 7.17539Q62.8561 7.42344 62.9713 7.53281Q63.0885 7.64023 63.3678 7.64023L63.9283 7.64023L63.9283 8.4L63.2076 8.4Q62.5924 8.4 62.2643 8.11289Q61.9361 7.82383 61.9361 7.17539L61.9361 4.73594L61.4166 4.73594L61.4166 3.9918L61.9361 3.9918L61.9361 2.89609L62.8561 2.89609L62.8561 3.9918L63.9283 3.9918L63.9283 4.73594L62.8561 4.73594ZM66.5449 5.60703Q66.5449 4.79258 66.9238 4.14414Q67.3046 3.4957 67.955 3.13242Q68.6074 2.76719 69.3847 2.76719Q70.2714 2.76719 70.9629 3.20469Q71.6562 3.64023 71.9687 4.43906L70.8711 4.43906Q70.6562 3.99961 70.2714 3.78477Q69.8886 3.56797 69.3847 3.56797Q68.832 3.56797 68.4004 3.81602Q67.9687 4.06406 67.7246 4.52891Q67.4804 4.9918 67.4804 5.60703Q67.4804 6.22422 67.7246 6.68906Q67.9687 7.15195 68.4004 7.40391Q68.832 7.65586 69.3847 7.65586Q69.8886 7.65586 70.2714 7.44102Q70.6562 7.22422 70.8711 6.78477L71.9687 6.78477Q71.6562 7.58359 70.9629 8.01719Q70.2714 8.44883 69.3847 8.44883Q68.5996 8.44883 67.9511 8.08555Q67.3046 7.72031 66.9238 7.07188Q66.5449 6.42344 66.5449 5.60703Z" fill="#000000" transform="translate(3 23)" />
      </g>
      <path d="M1.05762 11.625L1.05762 2.89746L4.00488 2.89746Q5.0332 2.89746 5.68652 3.2666Q6.33984 3.63574 6.65625 4.2627Q6.97266 4.88672 6.97266 5.66016Q6.97266 6.43066 6.65918 7.06055Q6.3457 7.69043 5.69238 8.06543Q5.04199 8.4375 4.02246 8.4375L2.1123 8.4375L2.1123 11.625L1.05762 11.625ZM2.1123 7.5L3.9873 7.5Q5.04199 7.5 5.4873 6.97266Q5.93262 6.44238 5.93262 5.66016Q5.93262 4.87207 5.48438 4.35352Q5.03613 3.83496 3.97266 3.83496L2.1123 3.83496L2.1123 7.5ZM8.67694 11.625L8.67694 2.89746L11.6242 2.89746Q12.6525 2.89746 13.3058 3.2666Q13.9592 3.63574 14.2756 4.2627Q14.592 4.88672 14.592 5.66016Q14.592 6.43066 14.2785 7.06055Q13.965 7.69043 13.3117 8.06543Q12.6613 8.4375 11.6418 8.4375L9.73162 8.4375L9.73162 11.625L8.67694 11.625ZM9.73162 7.5L11.6066 7.5Q12.6613 7.5 13.1066 6.97266Q13.5519 6.44238 13.5519 5.66016Q13.5519 4.87207 13.1037 4.35352Q12.6555 3.83496 11.592 3.83496L9.73162 3.83496L9.73162 7.5ZM21.0687 5.08008Q20.9925 4.43262 20.4447 4.0752Q19.8998 3.71484 19.1088 3.71484Q18.2386 3.71484 17.7084 4.12793Q17.181 4.53809 17.181 5.16504Q17.181 5.63379 17.4681 5.9209Q17.7582 6.20801 18.1507 6.36914Q18.5463 6.52734 18.8685 6.6123L19.7562 6.85254Q20.0961 6.94043 20.515 7.09863Q20.9369 7.25684 21.3207 7.5293Q21.7074 7.79883 21.9593 8.2207Q22.2113 8.64258 22.2113 9.25488Q22.2113 9.96387 21.8422 10.5352Q21.473 11.1064 20.767 11.4434Q20.0638 11.7773 19.056 11.7773Q17.6498 11.7773 16.8236 11.1152Q15.9974 10.4502 15.9213 9.375L17.0111 9.375Q17.055 9.87012 17.3451 10.1924Q17.6381 10.5117 18.0863 10.6699Q18.5375 10.8252 19.056 10.8252Q19.6625 10.8252 20.1429 10.626Q20.6263 10.4268 20.9076 10.0723Q21.1888 9.71484 21.1888 9.2373Q21.1888 8.80371 20.9457 8.53125Q20.7025 8.25879 20.3041 8.08887Q19.9086 7.91895 19.4486 7.79004L18.3763 7.48242Q17.3509 7.18945 16.7533 6.64453Q16.1586 6.09668 16.1586 5.21484Q16.1586 4.48242 16.557 3.93457Q16.9554 3.38672 17.6293 3.08203Q18.306 2.77734 19.141 2.77734Q19.9847 2.77734 20.641 3.0791Q21.2972 3.37793 21.6839 3.89941Q22.0707 4.41797 22.0912 5.08008L21.0687 5.08008ZM25.0044 2.89746L25.0044 11.625L23.9497 11.625L23.9497 2.89746L25.0044 2.89746Z" fill="#757575" transform="translate(120 7)" />
    </g>
    <g clip-path="url(#clip_path_3)">
      <rect width="425" height="154" fill="#FFFFFF" fill-rule="evenodd" />
      <g transform="translate(17 22)">
        <path d="M0 7.99998L14 7.99998C19.5242 5.86332 18.3468 0 22.0968 0C25.8468 0 24.2742 5.86332 32 7.99998L53 7.99998" fill="none" stroke-width="1" stroke="#808080" transform="translate(9 83)" />
        <g fill="none" stroke-width="1" stroke="#000000" transform="translate(0 105)">
          <path d="M65 4L73 0L65 -4" />
          <line x1="0" y1="0" x2="73" y2="0" />
        </g>
        <line x1="0" y1="0" x2="53.5" y2="0" fill="none" stroke-width="1" stroke="#BDBDBD" stroke-linecap="square" stroke-linejoin="round" transform="translate(9 77)" />
        <path d="M0.630615 14.5954Q0.630615 12.3908 1.52271 10.6682Q2.41479 8.94551 4.0708 7.99189Q5.73193 7.03315 7.97754 7.03315Q9.9104 7.03315 11.4331 7.76118Q12.9558 8.48408 13.9094 9.80684Q14.8682 11.1296 15.1809 12.8933L10.2693 12.8933Q9.93091 12.1601 9.31055 11.75Q8.69531 11.3398 7.89551 11.3398Q6.72144 11.3398 6.03442 12.2216Q5.35254 13.1035 5.35254 14.5954Q5.35254 16.0874 6.03442 16.9692Q6.72144 17.851 7.89551 17.851Q8.69531 17.851 9.31055 17.4409Q9.93091 17.0307 10.2693 16.2976L15.1809 16.2976Q14.8682 18.0612 13.9094 19.384Q12.9558 20.7067 11.4331 21.4296Q9.9104 22.1525 7.97754 22.1525Q5.73193 22.1525 4.0708 21.1989Q2.41479 20.2453 1.52271 18.5227Q0.630615 16.8 0.630615 14.5954ZM16.2334 16.1284Q16.2334 14.257 16.8743 12.883Q17.5151 11.509 18.6277 10.7861Q19.7402 10.0581 21.1245 10.0581Q22.2832 10.0581 23.1189 10.5349Q23.9597 11.0065 24.4006 11.8217L24.4006 10.2067L29.0405 10.2067L29.0405 22.05L24.4006 22.05L24.4006 20.435Q23.9597 21.2502 23.1189 21.727Q22.2832 22.1987 21.1245 22.1987Q19.7402 22.1987 18.6277 21.4758Q17.5151 20.7478 16.8743 19.3737Q16.2334 17.9946 16.2334 16.1284ZM24.4006 16.1284Q24.4006 15.185 23.9187 14.6621Q23.4368 14.134 22.678 14.134Q21.9243 14.134 21.4424 14.6621Q20.9605 15.185 20.9605 16.1284Q20.9605 17.0717 21.4424 17.5998Q21.9243 18.1228 22.678 18.1228Q23.4368 18.1228 23.9187 17.5998Q24.4006 17.0717 24.4006 16.1284ZM36.4145 22.1987Q34.7329 22.1987 33.4409 21.6552Q32.1489 21.1066 31.3901 20.1428Q30.6365 19.1738 30.5339 17.9536L35.0046 17.9536Q35.0918 18.4816 35.4558 18.7329Q35.8249 18.9841 36.394 18.9841Q36.7478 18.9841 36.958 18.8303Q37.1682 18.6713 37.1682 18.4355Q37.1682 18.0407 36.7273 17.8715Q36.2864 17.7023 35.2405 17.4921Q33.9587 17.2409 33.1282 16.9487Q32.2976 16.6513 31.6772 15.9387Q31.0569 15.226 31.0569 13.9648Q31.0569 12.8728 31.6362 11.9807Q32.2156 11.0886 33.3486 10.5759Q34.4817 10.0581 36.0967 10.0581Q38.4909 10.0581 39.8445 11.2373Q41.2031 12.4113 41.4748 14.3032L37.3374 14.3032Q37.2348 13.8161 36.8965 13.5546Q36.5632 13.2932 35.9941 13.2932Q35.6352 13.2932 35.4455 13.4316Q35.261 13.5649 35.261 13.8366Q35.261 14.1955 35.7019 14.375Q36.1428 14.5544 37.1067 14.7441Q38.3884 14.9953 39.2702 15.3132Q40.1521 15.6259 40.8032 16.395Q41.4543 17.1589 41.4543 18.5021Q41.4543 19.5532 40.8442 20.394Q40.2341 21.2297 39.0908 21.7167Q37.9475 22.1987 36.4145 22.1987ZM46.0322 11.0681L46.0322 6.6999L53.1535 6.6999L53.1535 22.05L48.2573 22.05L48.2573 11.0681L46.0322 11.0681Z" fill="#000000" transform="translate(3 0)" />
        <path d="M1.51172 3.57578L1.51172 5.20859L3.43164 5.20859L3.43164 5.95273L1.51172 5.95273L1.51172 7.65586L3.67188 7.65586L3.67188 8.4L0.599609 8.4L0.599609 2.83164L3.67188 2.83164L3.67188 3.57578L1.51172 3.57578ZM6.68028 6.16758L8.10411 8.4L7.07286 8.4L6.11973 6.90391L5.22325 8.4L4.27208 8.4L5.69591 6.23203L4.27208 3.9918L5.30333 3.9918L6.25645 5.48789L7.15294 3.9918L8.10411 3.9918L6.68028 6.16758ZM9.24845 3.40781Q9.00041 3.40781 8.83244 3.23984Q8.66447 3.07188 8.66447 2.82383Q8.66447 2.57578 8.83244 2.40781Q9.00041 2.23984 9.24845 2.23984Q9.48869 2.23984 9.65666 2.40781Q9.82463 2.57578 9.82463 2.82383Q9.82463 3.07188 9.65666 3.23984Q9.48869 3.40781 9.24845 3.40781ZM9.69572 3.9918L9.69572 8.4L8.78361 8.4L8.78361 3.9918L9.69572 3.9918ZM11.9601 4.73594L11.9601 7.17539Q11.9601 7.42344 12.0753 7.53281Q12.1925 7.64023 12.4718 7.64023L13.0323 7.64023L13.0323 8.4L12.3116 8.4Q11.6964 8.4 11.3683 8.11289Q11.0401 7.82383 11.0401 7.17539L11.0401 4.73594L10.5206 4.73594L10.5206 3.9918L11.0401 3.9918L11.0401 2.89609L11.9601 2.89609L11.9601 3.9918L13.0323 3.9918L13.0323 4.73594L11.9601 4.73594ZM13.5689 6.17539Q13.5689 5.51133 13.8443 4.99961Q14.1197 4.48789 14.5962 4.20469Q15.0728 3.91953 15.649 3.91953Q16.1685 3.91953 16.5552 4.12461Q16.9439 4.32773 17.1763 4.63242L17.1763 3.9918L18.0962 3.9918L18.0962 8.4L17.1763 8.4L17.1763 7.74375Q16.9439 8.05625 16.5435 8.26523Q16.1431 8.47227 15.6314 8.47227Q15.065 8.47227 14.5923 8.18125Q14.1197 7.88828 13.8443 7.36484Q13.5689 6.83945 13.5689 6.17539ZM17.1763 6.19297Q17.1763 5.73594 16.9868 5.4Q16.7993 5.06406 16.4947 4.88828Q16.1919 4.7125 15.8404 4.7125Q15.4888 4.7125 15.1841 4.88438Q14.8794 5.05625 14.6919 5.38828Q14.5044 5.72031 14.5044 6.17539Q14.5044 6.63242 14.6919 6.97617Q14.8794 7.31992 15.188 7.49961Q15.4966 7.6793 15.8404 7.6793Q16.1919 7.6793 16.4947 7.50352Q16.7993 7.32773 16.9868 6.98789Q17.1763 6.64805 17.1763 6.19297ZM20.3601 4.73594L20.3601 7.17539Q20.3601 7.42344 20.4753 7.53281Q20.5925 7.64023 20.8718 7.64023L21.4323 7.64023L21.4323 8.4L20.7116 8.4Q20.0964 8.4 19.7683 8.11289Q19.4401 7.82383 19.4401 7.17539L19.4401 4.73594L18.9206 4.73594L18.9206 3.9918L19.4401 3.9918L19.4401 2.89609L20.3601 2.89609L20.3601 3.9918L21.4323 3.9918L21.4323 4.73594L20.3601 4.73594ZM22.7365 3.40781Q22.4884 3.40781 22.3204 3.23984Q22.1525 3.07188 22.1525 2.82383Q22.1525 2.57578 22.3204 2.40781Q22.4884 2.23984 22.7365 2.23984Q22.9767 2.23984 23.1447 2.40781Q23.3126 2.57578 23.3126 2.82383Q23.3126 3.07188 23.1447 3.23984Q22.9767 3.40781 22.7365 3.40781ZM23.1837 3.9918L23.1837 8.4L22.2716 8.4L22.2716 3.9918L23.1837 3.9918ZM26.2957 8.47227Q25.6727 8.47227 25.1688 8.18906Q24.6649 7.90391 24.3758 7.38828Q24.0887 6.87266 24.0887 6.19297Q24.0887 5.51914 24.3836 4.99961Q24.6805 4.48008 25.1922 4.20078Q25.7039 3.91953 26.3367 3.91953Q26.9676 3.91953 27.4793 4.20078Q27.991 4.48008 28.2879 4.99961Q28.5848 5.51914 28.5848 6.19297Q28.5848 6.86484 28.2801 7.38438Q27.9754 7.90391 27.452 8.18906Q26.9285 8.47227 26.2957 8.47227ZM26.2957 7.6793Q26.6473 7.6793 26.9559 7.51133Q27.2645 7.34336 27.4559 7.00742Q27.6473 6.67148 27.6473 6.19297Q27.6473 5.7125 27.4637 5.38047Q27.2801 5.04844 26.9754 4.88047Q26.6727 4.7125 26.3192 4.7125Q25.9676 4.7125 25.6668 4.88047Q25.368 5.04844 25.1922 5.38047Q25.0164 5.7125 25.0164 6.19297Q25.0164 6.90391 25.3797 7.29258Q25.7449 7.6793 26.2957 7.6793ZM31.7122 3.91953Q32.2318 3.91953 32.6439 4.13633Q33.056 4.35117 33.2884 4.77695Q33.5208 5.20078 33.5208 5.80039L33.5208 8.4L32.6165 8.4L32.6165 5.93516Q32.6165 5.34336 32.3196 5.02891Q32.0247 4.7125 31.511 4.7125Q30.9993 4.7125 30.6985 5.02891Q30.3997 5.34336 30.3997 5.93516L30.3997 8.4L29.4876 8.4L29.4876 3.9918L30.3997 3.9918L30.3997 4.4957Q30.6243 4.22422 30.972 4.07188Q31.3196 3.91953 31.7122 3.91953ZM36.4569 6.17539Q36.4569 5.51133 36.7323 4.99961Q37.0077 4.48789 37.4842 4.20469Q37.9608 3.91953 38.5448 3.91953Q38.9764 3.91953 39.3963 4.10898Q39.8162 4.29648 40.0643 4.60703L40.0643 2.48008L40.9842 2.48008L40.9842 8.4L40.0643 8.4L40.0643 7.73594Q39.8397 8.05625 39.4432 8.26523Q39.0487 8.47227 38.537 8.47227Q37.9608 8.47227 37.4842 8.18125Q37.0077 7.88828 36.7323 7.36484Q36.4569 6.83945 36.4569 6.17539ZM40.0643 6.19297Q40.0643 5.73594 39.8748 5.4Q39.6873 5.06406 39.3827 4.88828Q39.0799 4.7125 38.7284 4.7125Q38.3768 4.7125 38.0721 4.88438Q37.7674 5.05625 37.5799 5.38828Q37.3924 5.72031 37.3924 6.17539Q37.3924 6.63242 37.5799 6.97617Q37.7674 7.31992 38.076 7.49961Q38.3846 7.6793 38.7284 7.6793Q39.0799 7.6793 39.3827 7.50352Q39.6873 7.32773 39.8748 6.98789Q40.0643 6.64805 40.0643 6.19297ZM46.2246 6.0875Q46.2246 6.33555 46.1914 6.53672L42.8242 6.53672Q42.8633 7.06406 43.2149 7.38438Q43.5684 7.70469 44.0801 7.70469Q44.8164 7.70469 45.1192 7.0875L46.1035 7.0875Q45.9043 7.69688 45.3789 8.08555Q44.8555 8.47227 44.0801 8.47227Q43.4473 8.47227 42.9473 8.18906Q42.4473 7.90391 42.1641 7.38828Q41.8809 6.87266 41.8809 6.19297Q41.8809 5.51133 42.1563 4.9957Q42.4317 4.48008 42.9317 4.20078Q43.4317 3.91953 44.0801 3.91953Q44.7031 3.91953 45.1914 4.19297Q45.6797 4.46445 45.9512 4.95664Q46.2246 5.44883 46.2246 6.0875ZM45.2715 5.80039Q45.2637 5.29648 44.9121 4.9918Q44.5606 4.68711 44.0391 4.68711Q43.5684 4.68711 43.2324 4.98789Q42.8965 5.28867 42.832 5.80039L45.2715 5.80039ZM52.5512 7.26328L50.223 7.26328L49.8246 8.4L48.8715 8.4L50.8637 2.83164L51.9203 2.83164L53.9125 8.4L52.9516 8.4L52.5512 7.26328ZM52.2953 6.51914L51.393 3.93516L50.4809 6.51914L52.2953 6.51914ZM58.7677 8.47227Q58.1447 8.47227 57.6408 8.18906Q57.1369 7.90391 56.8478 7.38828Q56.5607 6.87266 56.5607 6.19297Q56.5607 5.51914 56.8556 4.99961Q57.1525 4.48008 57.6642 4.20078Q58.1759 3.91953 58.8087 3.91953Q59.4396 3.91953 59.9513 4.20078Q60.463 4.48008 60.7599 4.99961Q61.0568 5.51914 61.0568 6.19297Q61.0568 6.86484 60.7521 7.38438Q60.4474 7.90391 59.924 8.18906Q59.4005 8.47227 58.7677 8.47227ZM58.7677 7.6793Q59.1193 7.6793 59.4279 7.51133Q59.7365 7.34336 59.9279 7.00742Q60.1193 6.67148 60.1193 6.19297Q60.1193 5.7125 59.9357 5.38047Q59.7521 5.04844 59.4474 4.88047Q59.1447 4.7125 58.7912 4.7125Q58.4396 4.7125 58.1388 4.88047Q57.84 5.04844 57.6642 5.38047Q57.4884 5.7125 57.4884 6.19297Q57.4884 6.90391 57.8517 7.29258Q58.2169 7.6793 58.7677 7.6793ZM65.9518 3.9918L65.9518 8.4L65.0397 8.4L65.0397 7.88047Q64.8248 8.15195 64.4752 8.3082Q64.1276 8.46445 63.737 8.46445Q63.2155 8.46445 62.8034 8.24961Q62.3913 8.03281 62.1549 7.60898Q61.9206 7.1832 61.9206 6.58359L61.9206 3.9918L62.8248 3.9918L62.8248 6.44883Q62.8248 7.04063 63.1198 7.35703Q63.4166 7.67148 63.9284 7.67148Q64.4401 7.67148 64.7389 7.35703Q65.0397 7.04063 65.0397 6.44883L65.0397 3.9918L65.9518 3.9918ZM72.2082 5.54453Q72.6554 5.62461 72.9679 6.01719Q73.2804 6.40781 73.2804 6.90391Q73.2804 7.32773 73.0597 7.66758Q72.839 8.00742 72.423 8.20469Q72.009 8.4 71.4562 8.4L69.2316 8.4L69.2316 2.83945L71.3527 2.83945Q71.9191 2.83945 72.3273 3.03281Q72.7355 3.22422 72.9426 3.54844Q73.1515 3.87266 73.1515 4.27109Q73.1515 4.75156 72.8957 5.07188Q72.6398 5.39219 72.2082 5.54453ZM70.1437 5.17539L71.2726 5.17539Q71.7199 5.17539 71.9718 4.97227Q72.2238 4.76719 72.2238 4.38438Q72.2238 4.00742 71.9718 3.79648Q71.7199 3.58359 71.2726 3.58359L70.1437 3.58359L70.1437 5.17539ZM71.3761 7.65586Q71.839 7.65586 72.1027 7.4332Q72.3683 7.20859 72.3683 6.8082Q72.3683 6.4 72.0871 6.15977Q71.8078 5.91953 71.3449 5.91953L70.1437 5.91953L70.1437 7.65586L71.3761 7.65586Z" fill="#000000" transform="translate(3 23)" />
        <g fill="none" stroke-width="1" stroke="#000000" transform="translate(9 43)">
          <path d="M4 8L0 0L-4 8" />
          <line x1="0" y1="67" x2="0" y2="0" />
        </g>
      </g>
      <g transform="translate(124 22)">
        <g transform="translate(0 43)">
          <path d="M0 8L6 8C11.5242 5.86334 11.75 0 15.5 0C19.25 0 18.375 7.75 21.5 8C24.625 8.25 25.5 0 28 0C30.5 0 29.75 6.25 36 8L53 8" fill="none" stroke-width="1" stroke="#808080" transform="translate(9 40)" />
          <g fill="none" stroke-width="1" stroke="#000000" transform="translate(9 0)">
            <path d="M4 8L0 0L-4 8" />
            <line x1="0" y1="67" x2="0" y2="0" />
          </g>
          <g fill="none" stroke-width="1" stroke="#000000" transform="translate(0 62)">
            <path d="M65 4L73 0L65 -4" />
            <line x1="0" y1="0" x2="73" y2="0" />
          </g>
          <line x1="0" y1="0" x2="53.5" y2="0" fill="none" stroke-width="1" stroke="#BDBDBD" stroke-linecap="square" stroke-linejoin="round" transform="translate(9 34)" />
        </g>
        <path d="M0.630615 14.5954Q0.630615 12.3908 1.52271 10.6682Q2.41479 8.94551 4.0708 7.99189Q5.73193 7.03315 7.97754 7.03315Q9.9104 7.03315 11.4331 7.76118Q12.9558 8.48408 13.9094 9.80684Q14.8682 11.1296 15.1809 12.8933L10.2693 12.8933Q9.93091 12.1601 9.31055 11.75Q8.69531 11.3398 7.89551 11.3398Q6.72144 11.3398 6.03442 12.2216Q5.35254 13.1035 5.35254 14.5954Q5.35254 16.0874 6.03442 16.9692Q6.72144 17.851 7.89551 17.851Q8.69531 17.851 9.31055 17.4409Q9.93091 17.0307 10.2693 16.2976L15.1809 16.2976Q14.8682 18.0612 13.9094 19.384Q12.9558 20.7067 11.4331 21.4296Q9.9104 22.1525 7.97754 22.1525Q5.73193 22.1525 4.0708 21.1989Q2.41479 20.2453 1.52271 18.5227Q0.630615 16.8 0.630615 14.5954ZM16.2334 16.1284Q16.2334 14.257 16.8743 12.883Q17.5151 11.509 18.6277 10.7861Q19.7402 10.0581 21.1245 10.0581Q22.2832 10.0581 23.1189 10.5349Q23.9597 11.0065 24.4006 11.8217L24.4006 10.2067L29.0405 10.2067L29.0405 22.05L24.4006 22.05L24.4006 20.435Q23.9597 21.2502 23.1189 21.727Q22.2832 22.1987 21.1245 22.1987Q19.7402 22.1987 18.6277 21.4758Q17.5151 20.7478 16.8743 19.3737Q16.2334 17.9946 16.2334 16.1284ZM24.4006 16.1284Q24.4006 15.185 23.9187 14.6621Q23.4368 14.134 22.678 14.134Q21.9243 14.134 21.4424 14.6621Q20.9605 15.185 20.9605 16.1284Q20.9605 17.0717 21.4424 17.5998Q21.9243 18.1228 22.678 18.1228Q23.4368 18.1228 23.9187 17.5998Q24.4006 17.0717 24.4006 16.1284ZM36.4145 22.1987Q34.7329 22.1987 33.4409 21.6552Q32.1489 21.1066 31.3901 20.1428Q30.6365 19.1738 30.5339 17.9536L35.0046 17.9536Q35.0918 18.4816 35.4558 18.7329Q35.8249 18.9841 36.394 18.9841Q36.7478 18.9841 36.958 18.8303Q37.1682 18.6713 37.1682 18.4355Q37.1682 18.0407 36.7273 17.8715Q36.2864 17.7023 35.2405 17.4921Q33.9587 17.2409 33.1282 16.9487Q32.2976 16.6513 31.6772 15.9387Q31.0569 15.226 31.0569 13.9648Q31.0569 12.8728 31.6362 11.9807Q32.2156 11.0886 33.3486 10.5759Q34.4817 10.0581 36.0967 10.0581Q38.4909 10.0581 39.8445 11.2373Q41.2031 12.4113 41.4748 14.3032L37.3374 14.3032Q37.2348 13.8161 36.8965 13.5546Q36.5632 13.2932 35.9941 13.2932Q35.6352 13.2932 35.4455 13.4316Q35.261 13.5649 35.261 13.8366Q35.261 14.1955 35.7019 14.375Q36.1428 14.5544 37.1067 14.7441Q38.3884 14.9953 39.2702 15.3132Q40.1521 15.6259 40.8032 16.395Q41.4543 17.1589 41.4543 18.5021Q41.4543 19.5532 40.8442 20.394Q40.2341 21.2297 39.0908 21.7167Q37.9475 22.1987 36.4145 22.1987ZM46.4116 18.333Q49.2263 16.2309 50.8618 14.5236Q52.5024 12.8112 52.5024 11.3193Q52.5024 10.8168 52.282 10.5451Q52.0615 10.2683 51.7026 10.2683Q51.2822 10.2683 51.0412 10.6989Q50.8003 11.1296 50.8618 12.0114L46.3449 12.0114Q46.4116 10.0581 47.196 8.80195Q47.9856 7.54072 49.2417 6.95112Q50.5029 6.36152 52.0154 6.36152Q54.707 6.36152 55.9529 7.65351Q57.2038 8.94551 57.2038 10.9604Q57.2038 13.083 55.8503 14.944Q54.4968 16.8 52.4563 18.0817L57.2654 18.0817L57.2654 21.8398L46.4116 21.8398L46.4116 18.333Z" fill="#000000" transform="translate(3 0)" />
        <path d="M1.51172 3.57578L1.51172 5.20859L3.43164 5.20859L3.43164 5.95273L1.51172 5.95273L1.51172 7.65586L3.67188 7.65586L3.67188 8.4L0.599609 8.4L0.599609 2.83164L3.67188 2.83164L3.67188 3.57578L1.51172 3.57578ZM6.68028 6.16758L8.10411 8.4L7.07286 8.4L6.11973 6.90391L5.22325 8.4L4.27208 8.4L5.69591 6.23203L4.27208 3.9918L5.30333 3.9918L6.25645 5.48789L7.15294 3.9918L8.10411 3.9918L6.68028 6.16758ZM9.24845 3.40781Q9.00041 3.40781 8.83244 3.23984Q8.66447 3.07188 8.66447 2.82383Q8.66447 2.57578 8.83244 2.40781Q9.00041 2.23984 9.24845 2.23984Q9.48869 2.23984 9.65666 2.40781Q9.82463 2.57578 9.82463 2.82383Q9.82463 3.07188 9.65666 3.23984Q9.48869 3.40781 9.24845 3.40781ZM9.69572 3.9918L9.69572 8.4L8.78361 8.4L8.78361 3.9918L9.69572 3.9918ZM11.9601 4.73594L11.9601 7.17539Q11.9601 7.42344 12.0753 7.53281Q12.1925 7.64023 12.4718 7.64023L13.0323 7.64023L13.0323 8.4L12.3116 8.4Q11.6964 8.4 11.3683 8.11289Q11.0401 7.82383 11.0401 7.17539L11.0401 4.73594L10.5206 4.73594L10.5206 3.9918L11.0401 3.9918L11.0401 2.89609L11.9601 2.89609L11.9601 3.9918L13.0323 3.9918L13.0323 4.73594L11.9601 4.73594ZM13.5689 6.17539Q13.5689 5.51133 13.8443 4.99961Q14.1197 4.48789 14.5962 4.20469Q15.0728 3.91953 15.649 3.91953Q16.1685 3.91953 16.5552 4.12461Q16.9439 4.32773 17.1763 4.63242L17.1763 3.9918L18.0962 3.9918L18.0962 8.4L17.1763 8.4L17.1763 7.74375Q16.9439 8.05625 16.5435 8.26523Q16.1431 8.47227 15.6314 8.47227Q15.065 8.47227 14.5923 8.18125Q14.1197 7.88828 13.8443 7.36484Q13.5689 6.83945 13.5689 6.17539ZM17.1763 6.19297Q17.1763 5.73594 16.9868 5.4Q16.7993 5.06406 16.4947 4.88828Q16.1919 4.7125 15.8404 4.7125Q15.4888 4.7125 15.1841 4.88438Q14.8794 5.05625 14.6919 5.38828Q14.5044 5.72031 14.5044 6.17539Q14.5044 6.63242 14.6919 6.97617Q14.8794 7.31992 15.188 7.49961Q15.4966 7.6793 15.8404 7.6793Q16.1919 7.6793 16.4947 7.50352Q16.7993 7.32773 16.9868 6.98789Q17.1763 6.64805 17.1763 6.19297ZM20.3601 4.73594L20.3601 7.17539Q20.3601 7.42344 20.4753 7.53281Q20.5925 7.64023 20.8718 7.64023L21.4323 7.64023L21.4323 8.4L20.7116 8.4Q20.0964 8.4 19.7683 8.11289Q19.4401 7.82383 19.4401 7.17539L19.4401 4.73594L18.9206 4.73594L18.9206 3.9918L19.4401 3.9918L19.4401 2.89609L20.3601 2.89609L20.3601 3.9918L21.4323 3.9918L21.4323 4.73594L20.3601 4.73594ZM22.7365 3.40781Q22.4884 3.40781 22.3204 3.23984Q22.1525 3.07188 22.1525 2.82383Q22.1525 2.57578 22.3204 2.40781Q22.4884 2.23984 22.7365 2.23984Q22.9767 2.23984 23.1447 2.40781Q23.3126 2.57578 23.3126 2.82383Q23.3126 3.07188 23.1447 3.23984Q22.9767 3.40781 22.7365 3.40781ZM23.1837 3.9918L23.1837 8.4L22.2716 8.4L22.2716 3.9918L23.1837 3.9918ZM26.2957 8.47227Q25.6727 8.47227 25.1688 8.18906Q24.6649 7.90391 24.3758 7.38828Q24.0887 6.87266 24.0887 6.19297Q24.0887 5.51914 24.3836 4.99961Q24.6805 4.48008 25.1922 4.20078Q25.7039 3.91953 26.3367 3.91953Q26.9676 3.91953 27.4793 4.20078Q27.991 4.48008 28.2879 4.99961Q28.5848 5.51914 28.5848 6.19297Q28.5848 6.86484 28.2801 7.38438Q27.9754 7.90391 27.452 8.18906Q26.9285 8.47227 26.2957 8.47227ZM26.2957 7.6793Q26.6473 7.6793 26.9559 7.51133Q27.2645 7.34336 27.4559 7.00742Q27.6473 6.67148 27.6473 6.19297Q27.6473 5.7125 27.4637 5.38047Q27.2801 5.04844 26.9754 4.88047Q26.6727 4.7125 26.3192 4.7125Q25.9676 4.7125 25.6668 4.88047Q25.368 5.04844 25.1922 5.38047Q25.0164 5.7125 25.0164 6.19297Q25.0164 6.90391 25.3797 7.29258Q25.7449 7.6793 26.2957 7.6793ZM31.7122 3.91953Q32.2318 3.91953 32.6439 4.13633Q33.056 4.35117 33.2884 4.77695Q33.5208 5.20078 33.5208 5.80039L33.5208 8.4L32.6165 8.4L32.6165 5.93516Q32.6165 5.34336 32.3196 5.02891Q32.0247 4.7125 31.511 4.7125Q30.9993 4.7125 30.6985 5.02891Q30.3997 5.34336 30.3997 5.93516L30.3997 8.4L29.4876 8.4L29.4876 3.9918L30.3997 3.9918L30.3997 4.4957Q30.6243 4.22422 30.972 4.07188Q31.3196 3.91953 31.7122 3.91953ZM36.4569 6.17539Q36.4569 5.51133 36.7323 4.99961Q37.0077 4.48789 37.4842 4.20469Q37.9608 3.91953 38.5448 3.91953Q38.9764 3.91953 39.3963 4.10898Q39.8162 4.29648 40.0643 4.60703L40.0643 2.48008L40.9842 2.48008L40.9842 8.4L40.0643 8.4L40.0643 7.73594Q39.8397 8.05625 39.4432 8.26523Q39.0487 8.47227 38.537 8.47227Q37.9608 8.47227 37.4842 8.18125Q37.0077 7.88828 36.7323 7.36484Q36.4569 6.83945 36.4569 6.17539ZM40.0643 6.19297Q40.0643 5.73594 39.8748 5.4Q39.6873 5.06406 39.3827 4.88828Q39.0799 4.7125 38.7284 4.7125Q38.3768 4.7125 38.0721 4.88438Q37.7674 5.05625 37.5799 5.38828Q37.3924 5.72031 37.3924 6.17539Q37.3924 6.63242 37.5799 6.97617Q37.7674 7.31992 38.076 7.49961Q38.3846 7.6793 38.7284 7.6793Q39.0799 7.6793 39.3827 7.50352Q39.6873 7.32773 39.8748 6.98789Q40.0643 6.64805 40.0643 6.19297ZM46.2246 6.0875Q46.2246 6.33555 46.1914 6.53672L42.8242 6.53672Q42.8633 7.06406 43.2149 7.38438Q43.5684 7.70469 44.0801 7.70469Q44.8164 7.70469 45.1192 7.0875L46.1035 7.0875Q45.9043 7.69688 45.3789 8.08555Q44.8555 8.47227 44.0801 8.47227Q43.4473 8.47227 42.9473 8.18906Q42.4473 7.90391 42.1641 7.38828Q41.8809 6.87266 41.8809 6.19297Q41.8809 5.51133 42.1563 4.9957Q42.4317 4.48008 42.9317 4.20078Q43.4317 3.91953 44.0801 3.91953Q44.7031 3.91953 45.1914 4.19297Q45.6797 4.46445 45.9512 4.95664Q46.2246 5.44883 46.2246 6.0875ZM45.2715 5.80039Q45.2637 5.29648 44.9121 4.9918Q44.5606 4.68711 44.0391 4.68711Q43.5684 4.68711 43.2324 4.98789Q42.8965 5.28867 42.832 5.80039L45.2715 5.80039ZM52.5512 7.26328L50.223 7.26328L49.8246 8.4L48.8715 8.4L50.8637 2.83164L51.9203 2.83164L53.9125 8.4L52.9516 8.4L52.5512 7.26328ZM52.2953 6.51914L51.393 3.93516L50.4809 6.51914L52.2953 6.51914ZM58.7443 6.16758L60.1681 8.4L59.1369 8.4L58.1837 6.90391L57.2873 8.4L56.3361 8.4L57.7599 6.23203L56.3361 3.9918L57.3673 3.9918L58.3205 5.48789L59.2169 3.9918L60.1681 3.9918L58.7443 6.16758ZM61.2324 7.15977Q62 6.4957 62.4433 6.06797Q62.8886 5.64023 63.1836 5.17734Q63.4804 4.7125 63.4804 4.24766Q63.4804 3.76719 63.2519 3.4957Q63.0234 3.22422 62.5351 3.22422Q62.0644 3.22422 61.8046 3.525Q61.5449 3.82383 61.5273 4.32773L60.6484 4.32773Q60.6718 3.41563 61.1953 2.9332Q61.7207 2.44883 62.5273 2.44883Q63.4003 2.44883 63.8925 2.9293Q64.3847 3.40781 64.3847 4.20859Q64.3847 4.78477 64.0918 5.31602Q63.8007 5.84727 63.3964 6.26719Q62.9921 6.68711 62.3671 7.23984L62.0078 7.56016L64.5449 7.56016L64.5449 8.31992L60.6562 8.31992L60.6562 7.65586L61.2324 7.15977ZM69.5592 9.88828Q68.776 9.13633 68.3561 7.97617Q67.9362 6.81602 67.9362 5.48789Q67.9362 4.12852 68.3874 2.92148Q68.8405 1.7125 69.7194 0.927344L70.6647 0.927344L70.6647 1.01523Q69.7448 1.86484 69.2799 3.04844Q68.8151 4.23203 68.8151 5.48789Q68.8151 6.69688 69.2467 7.82578Q69.6803 8.95273 70.5046 9.80039L70.5046 9.88828L69.5592 9.88828ZM72.5441 4.73594L72.5441 7.17539Q72.5441 7.42344 72.6593 7.53281Q72.7765 7.64023 73.0558 7.64023L73.6163 7.64023L73.6163 8.4L72.8956 8.4Q72.2804 8.4 71.9523 8.11289Q71.6241 7.82383 71.6241 7.17539L71.6241 4.73594L71.1046 4.73594L71.1046 3.9918L71.6241 3.9918L71.6241 2.89609L72.5441 2.89609L72.5441 3.9918L73.6163 3.9918L73.6163 4.73594L72.5441 4.73594ZM78.4966 6.0875Q78.4966 6.33555 78.4634 6.53672L75.0962 6.53672Q75.1353 7.06406 75.4869 7.38438Q75.8404 7.70469 76.3521 7.70469Q77.0884 7.70469 77.3912 7.0875L78.3755 7.0875Q78.1763 7.69688 77.6509 8.08555Q77.1275 8.47227 76.3521 8.47227Q75.7193 8.47227 75.2193 8.18906Q74.7193 7.90391 74.4361 7.38828Q74.1529 6.87266 74.1529 6.19297Q74.1529 5.51133 74.4283 4.9957Q74.7037 4.48008 75.2037 4.20078Q75.7037 3.91953 76.3521 3.91953Q76.9751 3.91953 77.4634 4.19297Q77.9517 4.46445 78.2232 4.95664Q78.4966 5.44883 78.4966 6.0875ZM77.5435 5.80039Q77.5357 5.29648 77.1841 4.9918Q76.8326 4.68711 76.3111 4.68711Q75.8404 4.68711 75.5044 4.98789Q75.1685 5.28867 75.104 5.80039L77.5435 5.80039ZM84.7275 3.91953Q85.2471 3.91953 85.6592 4.13633Q86.0713 4.35117 86.3076 4.77695Q86.544 5.20078 86.544 5.80039L86.544 8.4L85.6397 8.4L85.6397 5.93516Q85.6397 5.34336 85.3428 5.02891Q85.0479 4.7125 84.5361 4.7125Q84.0244 4.7125 83.7236 5.02891Q83.4248 5.34336 83.4248 5.93516L83.4248 8.4L82.5205 8.4L82.5205 5.93516Q82.5205 5.34336 82.2236 5.02891Q81.9287 4.7125 81.415 4.7125Q80.9033 4.7125 80.6025 5.02891Q80.3037 5.34336 80.3037 5.93516L80.3037 8.4L79.3916 8.4L79.3916 3.9918L80.3037 3.9918L80.3037 4.4957Q80.5283 4.22422 80.8721 4.07188Q81.2158 3.91953 81.6084 3.91953Q82.1357 3.91953 82.5518 4.14414Q82.9678 4.36875 83.1924 4.79258Q83.3916 4.39219 83.8154 4.15586Q84.2393 3.91953 84.7275 3.91953ZM88.6157 4.64023Q88.8481 4.33555 89.2485 4.12852Q89.6489 3.91953 90.1528 3.91953Q90.7271 3.91953 91.2036 4.20469Q91.6802 4.48789 91.9517 4.99961Q92.2231 5.51133 92.2231 6.17539Q92.2231 6.83945 91.9517 7.36484Q91.6802 7.88828 91.2036 8.18125Q90.7271 8.47227 90.1528 8.47227Q89.6489 8.47227 89.2563 8.26914Q88.8638 8.06406 88.6157 7.75938L88.6157 10.4957L87.7036 10.4957L87.7036 3.9918L88.6157 3.9918L88.6157 4.64023ZM91.2954 6.17539Q91.2954 5.72031 91.1079 5.38828Q90.9204 5.05625 90.6118 4.88438Q90.3032 4.7125 89.9517 4.7125Q89.6079 4.7125 89.2993 4.88828Q88.9927 5.06406 88.8032 5.4Q88.6157 5.73594 88.6157 6.19297Q88.6157 6.64805 88.8032 6.98789Q88.9927 7.32773 89.2993 7.50352Q89.6079 7.6793 89.9517 7.6793Q90.3032 7.6793 90.6118 7.49961Q90.9204 7.31992 91.1079 6.97617Q91.2954 6.63242 91.2954 6.17539ZM94.7272 8.47227Q94.2077 8.47227 93.7956 8.28477Q93.3835 8.09531 93.1432 7.77305Q92.905 7.44883 92.8874 7.04844L93.8327 7.04844Q93.8561 7.32773 94.1003 7.51719Q94.3444 7.70469 94.7116 7.70469Q95.0964 7.70469 95.3073 7.55625Q95.5202 7.40781 95.5202 7.17539Q95.5202 6.92734 95.2839 6.8082Q95.0475 6.68711 94.5358 6.54453Q94.0397 6.40781 93.7272 6.28086Q93.4167 6.15195 93.1882 5.88828Q92.9596 5.62461 92.9596 5.19297Q92.9596 4.83945 93.1667 4.54844Q93.3757 4.25547 93.7624 4.0875Q94.1511 3.91953 94.6569 3.91953Q95.4089 3.91953 95.8679 4.30039Q96.3288 4.6793 96.36 5.33555L95.4479 5.33555Q95.4245 5.04063 95.2077 4.86484Q94.9929 4.68711 94.6237 4.68711Q94.2643 4.68711 94.071 4.82383Q93.8796 4.96055 93.8796 5.1832Q93.8796 5.36094 94.0065 5.48008Q94.1354 5.59922 94.319 5.66758Q94.5046 5.73594 94.8639 5.83945Q95.3444 5.96836 95.6511 6.10117Q95.9596 6.23203 96.1843 6.48789Q96.4089 6.74375 96.4167 7.16758Q96.4167 7.54453 96.2077 7.84141Q96.0007 8.13633 95.6198 8.3043Q95.2409 8.47227 94.7272 8.47227ZM100.392 2.48008L100.392 8.4L99.4796 8.4L99.4796 2.48008L100.392 2.48008ZM103.504 8.47227Q102.881 8.47227 102.377 8.18906Q101.873 7.90391 101.584 7.38828Q101.297 6.87266 101.297 6.19297Q101.297 5.51914 101.592 4.99961Q101.888 4.48008 102.4 4.20078Q102.912 3.91953 103.545 3.91953Q104.176 3.91953 104.687 4.20078Q105.199 4.48008 105.496 4.99961Q105.793 5.51914 105.793 6.19297Q105.793 6.86484 105.488 7.38438Q105.183 7.90391 104.66 8.18906Q104.137 8.47227 103.504 8.47227ZM103.504 7.6793Q103.855 7.6793 104.164 7.51133Q104.472 7.34336 104.664 7.00742Q104.855 6.67148 104.855 6.19297Q104.855 5.7125 104.672 5.38047Q104.488 5.04844 104.183 4.88047Q103.881 4.7125 103.527 4.7125Q103.176 4.7125 102.875 4.88047Q102.576 5.04844 102.4 5.38047Q102.224 5.7125 102.224 6.19297Q102.224 6.90391 102.588 7.29258Q102.953 7.6793 103.504 7.6793ZM108.92 3.91953Q109.44 3.91953 109.852 4.13633Q110.264 4.35117 110.496 4.77695Q110.729 5.20078 110.729 5.80039L110.729 8.4L109.825 8.4L109.825 5.93516Q109.825 5.34336 109.528 5.02891Q109.233 4.7125 108.719 4.7125Q108.207 4.7125 107.907 5.02891Q107.608 5.34336 107.608 5.93516L107.608 8.4L106.696 8.4L106.696 3.9918L107.608 3.9918L107.608 4.4957Q107.832 4.22422 108.18 4.07188Q108.528 3.91953 108.92 3.91953ZM113.665 3.91953Q114.177 3.91953 114.571 4.12461Q114.968 4.32773 115.192 4.63242L115.192 3.9918L116.112 3.9918L116.112 8.47227Q116.112 9.07969 115.856 9.55625Q115.601 10.0328 115.116 10.3043Q114.632 10.5758 113.96 10.5758Q113.063 10.5758 112.472 10.1559Q111.88 9.73594 111.8 9.01523L112.704 9.01523Q112.808 9.36094 113.147 9.57188Q113.487 9.78477 113.96 9.78477Q114.513 9.78477 114.852 9.44883Q115.192 9.11289 115.192 8.47227L115.192 7.73594Q114.96 8.04844 114.563 8.26133Q114.169 8.47227 113.665 8.47227Q113.089 8.47227 112.612 8.18125Q112.136 7.88828 111.86 7.36484Q111.585 6.83945 111.585 6.17539Q111.585 5.51133 111.86 4.99961Q112.136 4.48789 112.612 4.20469Q113.089 3.91953 113.665 3.91953ZM115.192 6.19297Q115.192 5.73594 115.003 5.4Q114.815 5.06406 114.511 4.88828Q114.208 4.7125 113.856 4.7125Q113.505 4.7125 113.2 4.88438Q112.895 5.05625 112.708 5.38828Q112.52 5.72031 112.52 6.17539Q112.52 6.63242 112.708 6.97617Q112.895 7.31992 113.204 7.49961Q113.513 7.6793 113.856 7.6793Q114.208 7.6793 114.511 7.50352Q114.815 7.32773 115.003 6.98789Q115.192 6.64805 115.192 6.19297ZM117.089 9.88828L117.089 9.80039Q117.911 8.95273 118.343 7.82578Q118.776 6.69688 118.776 5.48789Q118.776 4.23203 118.312 3.04844Q117.849 1.86484 116.929 1.01523L116.929 0.927344L117.872 0.927344Q118.751 1.7125 119.202 2.92148Q119.655 4.12852 119.655 5.48789Q119.655 6.81602 119.235 7.97617Q118.816 9.13633 118.032 9.88828L117.089 9.88828Z" fill="#000000" transform="translate(3 23)" />
      </g>
      <g transform="translate(278 22)">
        <g transform="translate(0 43)">
          <path d="M0 36.0005L9 36.0005C12.8555 35.9876 10.7759 31.8719 14 30.5005C18.4595 30.7724 17.6117 20.1906 18.211 17.4805C20.0128 9.33243 19.5564 0.152222 20.5 0.000506401C21.4436 -0.15121 24.2742 33.8638 32 36.0005L53 36.0005" fill="none" stroke-width="1" stroke="#FFA33B" transform="translate(9 11.999)" />
          <g fill="none" stroke-width="1" stroke="#000000" transform="translate(9 0)">
            <path d="M4 8L0 0L-4 8" />
            <line x1="0" y1="67" x2="0" y2="0" />
          </g>
          <g fill="none" stroke-width="1" stroke="#000000" transform="translate(0 62)">
            <path d="M65 4L73 0L65 -4" />
            <line x1="0" y1="0" x2="73" y2="0" />
          </g>
          <line x1="0" y1="0" x2="53.5" y2="0" fill="none" stroke-width="1" stroke="#BDBDBD" stroke-linecap="square" stroke-linejoin="round" transform="translate(9 34)" />
        </g>
        <path d="M0.630615 14.5954Q0.630615 12.3908 1.52271 10.6682Q2.41479 8.94551 4.0708 7.99189Q5.73193 7.03315 7.97754 7.03315Q9.9104 7.03315 11.4331 7.76118Q12.9558 8.48408 13.9094 9.80684Q14.8682 11.1296 15.1809 12.8933L10.2693 12.8933Q9.93091 12.1601 9.31055 11.75Q8.69531 11.3398 7.89551 11.3398Q6.72144 11.3398 6.03442 12.2216Q5.35254 13.1035 5.35254 14.5954Q5.35254 16.0874 6.03442 16.9692Q6.72144 17.851 7.89551 17.851Q8.69531 17.851 9.31055 17.4409Q9.93091 17.0307 10.2693 16.2976L15.1809 16.2976Q14.8682 18.0612 13.9094 19.384Q12.9558 20.7067 11.4331 21.4296Q9.9104 22.1525 7.97754 22.1525Q5.73193 22.1525 4.0708 21.1989Q2.41479 20.2453 1.52271 18.5227Q0.630615 16.8 0.630615 14.5954ZM16.2334 16.1284Q16.2334 14.257 16.8743 12.883Q17.5151 11.509 18.6277 10.7861Q19.7402 10.0581 21.1245 10.0581Q22.2832 10.0581 23.1189 10.5349Q23.9597 11.0065 24.4006 11.8217L24.4006 10.2067L29.0405 10.2067L29.0405 22.05L24.4006 22.05L24.4006 20.435Q23.9597 21.2502 23.1189 21.727Q22.2832 22.1987 21.1245 22.1987Q19.7402 22.1987 18.6277 21.4758Q17.5151 20.7478 16.8743 19.3737Q16.2334 17.9946 16.2334 16.1284ZM24.4006 16.1284Q24.4006 15.185 23.9187 14.6621Q23.4368 14.134 22.678 14.134Q21.9243 14.134 21.4424 14.6621Q20.9605 15.185 20.9605 16.1284Q20.9605 17.0717 21.4424 17.5998Q21.9243 18.1228 22.678 18.1228Q23.4368 18.1228 23.9187 17.5998Q24.4006 17.0717 24.4006 16.1284ZM36.4145 22.1987Q34.7329 22.1987 33.4409 21.6552Q32.1489 21.1066 31.3901 20.1428Q30.6365 19.1738 30.5339 17.9536L35.0046 17.9536Q35.0918 18.4816 35.4558 18.7329Q35.8249 18.9841 36.394 18.9841Q36.7478 18.9841 36.958 18.8303Q37.1682 18.6713 37.1682 18.4355Q37.1682 18.0407 36.7273 17.8715Q36.2864 17.7023 35.2405 17.4921Q33.9587 17.2409 33.1282 16.9487Q32.2976 16.6513 31.6772 15.9387Q31.0569 15.226 31.0569 13.9648Q31.0569 12.8728 31.6362 11.9807Q32.2156 11.0886 33.3486 10.5759Q34.4817 10.0581 36.0967 10.0581Q38.4909 10.0581 39.8445 11.2373Q41.2031 12.4113 41.4748 14.3032L37.3374 14.3032Q37.2348 13.8161 36.8965 13.5546Q36.5632 13.2932 35.9941 13.2932Q35.6352 13.2932 35.4455 13.4316Q35.261 13.5649 35.261 13.8366Q35.261 14.1955 35.7019 14.375Q36.1428 14.5544 37.1067 14.7441Q38.3884 14.9953 39.2702 15.3132Q40.1521 15.6259 40.8032 16.395Q41.4543 17.1589 41.4543 18.5021Q41.4543 19.5532 40.8442 20.394Q40.2341 21.2297 39.0908 21.7167Q37.9475 22.1987 36.4145 22.1987ZM46.7654 11.509Q46.832 9.00703 48.2265 7.68428Q49.6211 6.36152 52.1845 6.36152Q53.8457 6.36152 55.0198 6.93061Q56.1938 7.49458 56.7937 8.46357Q57.3935 9.42744 57.3935 10.6477Q57.3935 12.1191 56.7014 12.9497Q56.0093 13.7751 55.1479 14.0725L55.1479 14.1545Q57.6653 15.0979 57.6653 17.6613Q57.6653 19.0046 57.0346 20.0351Q56.404 21.0605 55.2402 21.6296Q54.0764 22.1987 52.4768 22.1987Q49.7492 22.1987 48.1958 20.8964Q46.6423 19.5942 46.6013 16.8205L51.1335 16.8205Q51.0925 17.5793 51.354 17.9689Q51.6155 18.3535 52.2666 18.3535Q52.646 18.3535 52.8972 18.0715Q53.1535 17.7895 53.1535 17.3229Q53.1535 16.7385 52.7639 16.436Q52.3742 16.1284 51.4514 16.1284L50.6721 16.1284L50.6721 12.3703L51.4309 12.3703Q52.8562 12.4523 52.8562 11.2373Q52.8562 10.7092 52.6357 10.458Q52.4153 10.2067 52.082 10.2067Q51.3027 10.2067 51.3027 11.509L46.7654 11.509Z" fill="#000000" transform="translate(3 0)" />
        <path d="M2.61523 8.45664Q1.59961 8.45664 0.939453 7.98008Q0.279297 7.50352 0.224609 6.58359L2.11133 6.58359Q2.15234 7.07188 2.54492 7.07188Q2.6875 7.07188 2.78711 7.00352Q2.88867 6.93516 2.88867 6.79258Q2.88867 6.59141 2.67188 6.46836Q2.45508 6.34336 2 6.1832Q1.45508 5.9918 1.09961 5.8082Q0.744141 5.62461 0.488281 5.27305Q0.232422 4.91953 0.240234 4.36875Q0.240234 3.81602 0.523438 3.4293Q0.808594 3.04063 1.30078 2.84141Q1.79297 2.64023 2.4082 2.64023Q3.44727 2.64023 4.05859 3.1207Q4.67188 3.59922 4.70312 4.47227L2.79297 4.47227Q2.7832 4.23203 2.67188 4.12852Q2.56055 4.02305 2.40039 4.02305Q2.28711 4.02305 2.21484 4.09922Q2.14453 4.17539 2.14453 4.31211Q2.14453 4.50352 2.35547 4.62852Q2.56836 4.75156 3.03125 4.92734Q3.56836 5.12852 3.91602 5.31211Q4.26367 5.4957 4.51953 5.82383Q4.77539 6.15195 4.77539 6.64805Q4.77539 7.16758 4.51953 7.57969Q4.26367 7.9918 3.77539 8.22422Q3.28711 8.45664 2.61523 8.45664ZM7.54492 8.45664Q6.86328 8.45664 6.31836 8.17734Q5.77539 7.89609 5.4668 7.37266Q5.16016 6.84727 5.16016 6.14414Q5.16016 5.43906 5.4668 4.91563Q5.77539 4.39219 6.31836 4.11289Q6.86328 3.83164 7.54492 3.83164Q8.22461 3.83164 8.76758 4.11289Q9.3125 4.39219 9.61914 4.91563Q9.92773 5.43906 9.92773 6.14414Q9.92773 6.84727 9.61914 7.37266Q9.3125 7.89609 8.76758 8.17734Q8.22461 8.45664 7.54492 8.45664ZM7.54492 6.91953Q7.79297 6.91953 7.96094 6.72422Q8.12891 6.52891 8.12891 6.14414Q8.12891 5.75938 7.96094 5.56406Q7.79297 5.36875 7.54492 5.36875Q7.29688 5.36875 7.12891 5.56406Q6.96094 5.75938 6.96094 6.14414Q6.96094 6.52891 7.12305 6.72422Q7.28711 6.91953 7.54492 6.91953ZM16.5118 3.85508Q17.3751 3.85508 17.8517 4.37656Q18.3282 4.89609 18.3282 5.78477L18.3282 8.4L16.5607 8.4L16.5607 6.00742Q16.5607 5.72031 16.3888 5.55625Q16.2169 5.39219 15.9278 5.39219Q15.6329 5.39219 15.463 5.55625Q15.295 5.72031 15.295 6.00742L15.295 8.4L13.5275 8.4L13.5275 6.00742Q13.5275 5.72031 13.3556 5.55625Q13.1837 5.39219 12.8966 5.39219Q12.5997 5.39219 12.4318 5.55625Q12.2638 5.72031 12.2638 6.00742L12.2638 8.4L10.4884 8.4L10.4884 3.88828L12.2638 3.88828L12.2638 4.4957Q12.4552 4.20859 12.7872 4.03281Q13.1193 3.85508 13.5685 3.85508Q14.0568 3.85508 14.4318 4.06797Q14.8087 4.28086 15.0314 4.66367Q15.2794 4.31211 15.6642 4.08359Q16.0489 3.85508 16.5118 3.85508ZM25.1198 3.85508Q25.9831 3.85508 26.4597 4.37656Q26.9362 4.89609 26.9362 5.78477L26.9362 8.4L25.1687 8.4L25.1687 6.00742Q25.1687 5.72031 24.9968 5.55625Q24.8249 5.39219 24.5358 5.39219Q24.2409 5.39219 24.071 5.55625Q23.903 5.72031 23.903 6.00742L23.903 8.4L22.1355 8.4L22.1355 6.00742Q22.1355 5.72031 21.9636 5.55625Q21.7917 5.39219 21.5046 5.39219Q21.2077 5.39219 21.0398 5.55625Q20.8718 5.72031 20.8718 6.00742L20.8718 8.4L19.0964 8.4L19.0964 3.88828L20.8718 3.88828L20.8718 4.4957Q21.0632 4.20859 21.3952 4.03281Q21.7273 3.85508 22.1765 3.85508Q22.6648 3.85508 23.0398 4.06797Q23.4167 4.28086 23.6394 4.66367Q23.8874 4.31211 24.2722 4.08359Q24.6569 3.85508 25.1198 3.85508ZM27.4642 6.14414Q27.4642 5.43125 27.7083 4.90781Q27.9524 4.38438 28.3763 4.10898Q28.8001 3.83164 29.3274 3.83164Q29.7688 3.83164 30.0872 4.01328Q30.4075 4.19297 30.5755 4.50352L30.5755 3.88828L32.3431 3.88828L32.3431 8.4L30.5755 8.4L30.5755 7.78477Q30.4075 8.09531 30.0872 8.27695Q29.7688 8.45664 29.3274 8.45664Q28.8001 8.45664 28.3763 8.18125Q27.9524 7.90391 27.7083 7.38047Q27.4642 6.85508 27.4642 6.14414ZM30.5755 6.14414Q30.5755 5.78477 30.3919 5.58555Q30.2083 5.38438 29.9192 5.38438Q29.6321 5.38438 29.4485 5.58555Q29.2649 5.78477 29.2649 6.14414Q29.2649 6.50352 29.4485 6.70469Q29.6321 6.90391 29.9192 6.90391Q30.2083 6.90391 30.3919 6.70469Q30.5755 6.50352 30.5755 6.14414ZM35.951 6.88828L35.951 8.4L35.2792 8.4Q33.4237 8.4 33.4237 6.55234L33.4237 5.36875L32.8631 5.36875L32.8631 3.88828L33.4237 3.88828L33.4237 2.80039L35.1991 2.80039L35.1991 3.88828L35.9354 3.88828L35.9354 5.36875L35.1991 5.36875L35.1991 6.58359Q35.1991 6.74375 35.2752 6.81602Q35.3514 6.88828 35.5272 6.88828L35.951 6.88828ZM37.5289 3.52891Q37.064 3.52891 36.7828 3.28086Q36.5035 3.03281 36.5035 2.65586Q36.5035 2.27109 36.7828 2.01914Q37.064 1.76719 37.5289 1.76719Q37.984 1.76719 38.2632 2.01914Q38.5445 2.27109 38.5445 2.65586Q38.5445 3.03281 38.2632 3.28086Q37.984 3.52891 37.5289 3.52891ZM38.4078 3.88828L38.4078 8.4L36.6324 8.4L36.6324 3.88828L38.4078 3.88828ZM41.3529 8.45664Q40.6713 8.45664 40.1264 8.17734Q39.5834 7.89609 39.2748 7.37266Q38.9682 6.84727 38.9682 6.14414Q38.9682 5.43906 39.2748 4.91563Q39.5834 4.39219 40.1264 4.11289Q40.6713 3.83164 41.3529 3.83164Q42.0326 3.83164 42.5756 4.11289Q43.1205 4.39219 43.4271 4.91563Q43.7357 5.43906 43.7357 6.14414Q43.7357 6.84727 43.4271 7.37266Q43.1205 7.89609 42.5756 8.17734Q42.0326 8.45664 41.3529 8.45664ZM41.3529 6.91953Q41.601 6.91953 41.7689 6.72422Q41.9369 6.52891 41.9369 6.14414Q41.9369 5.75938 41.7689 5.56406Q41.601 5.36875 41.3529 5.36875Q41.1049 5.36875 40.9369 5.56406Q40.7689 5.75938 40.7689 6.14414Q40.7689 6.52891 40.931 6.72422Q41.0951 6.91953 41.3529 6.91953ZM47.4565 3.85508Q48.2319 3.85508 48.6675 4.37656Q49.103 4.89609 49.103 5.78477L49.103 8.4L47.3355 8.4L47.3355 6.00742Q47.3355 5.68711 47.1636 5.49961Q46.9917 5.31211 46.7046 5.31211Q46.4077 5.31211 46.2397 5.49961Q46.0718 5.68711 46.0718 6.00742L46.0718 8.4L44.2964 8.4L44.2964 3.88828L46.0718 3.88828L46.0718 4.57578Q46.2808 4.25547 46.6284 4.05625Q46.9761 3.85508 47.4565 3.85508Z" fill="#FFC480" transform="translate(66 84)" />
        <path d="M1.51172 3.57578L1.51172 5.20859L3.43164 5.20859L3.43164 5.95273L1.51172 5.95273L1.51172 7.65586L3.67188 7.65586L3.67188 8.4L0.599609 8.4L0.599609 2.83164L3.67188 2.83164L3.67188 3.57578L1.51172 3.57578ZM6.68028 6.16758L8.10411 8.4L7.07286 8.4L6.11973 6.90391L5.22325 8.4L4.27208 8.4L5.69591 6.23203L4.27208 3.9918L5.30333 3.9918L6.25645 5.48789L7.15294 3.9918L8.10411 3.9918L6.68028 6.16758ZM9.24845 3.40781Q9.00041 3.40781 8.83244 3.23984Q8.66447 3.07188 8.66447 2.82383Q8.66447 2.57578 8.83244 2.40781Q9.00041 2.23984 9.24845 2.23984Q9.48869 2.23984 9.65666 2.40781Q9.82463 2.57578 9.82463 2.82383Q9.82463 3.07188 9.65666 3.23984Q9.48869 3.40781 9.24845 3.40781ZM9.69572 3.9918L9.69572 8.4L8.78361 8.4L8.78361 3.9918L9.69572 3.9918ZM11.9601 4.73594L11.9601 7.17539Q11.9601 7.42344 12.0753 7.53281Q12.1925 7.64023 12.4718 7.64023L13.0323 7.64023L13.0323 8.4L12.3116 8.4Q11.6964 8.4 11.3683 8.11289Q11.0401 7.82383 11.0401 7.17539L11.0401 4.73594L10.5206 4.73594L10.5206 3.9918L11.0401 3.9918L11.0401 2.89609L11.9601 2.89609L11.9601 3.9918L13.0323 3.9918L13.0323 4.73594L11.9601 4.73594ZM13.5689 6.17539Q13.5689 5.51133 13.8443 4.99961Q14.1197 4.48789 14.5962 4.20469Q15.0728 3.91953 15.649 3.91953Q16.1685 3.91953 16.5552 4.12461Q16.9439 4.32773 17.1763 4.63242L17.1763 3.9918L18.0962 3.9918L18.0962 8.4L17.1763 8.4L17.1763 7.74375Q16.9439 8.05625 16.5435 8.26523Q16.1431 8.47227 15.6314 8.47227Q15.065 8.47227 14.5923 8.18125Q14.1197 7.88828 13.8443 7.36484Q13.5689 6.83945 13.5689 6.17539ZM17.1763 6.19297Q17.1763 5.73594 16.9868 5.4Q16.7993 5.06406 16.4947 4.88828Q16.1919 4.7125 15.8404 4.7125Q15.4888 4.7125 15.1841 4.88438Q14.8794 5.05625 14.6919 5.38828Q14.5044 5.72031 14.5044 6.17539Q14.5044 6.63242 14.6919 6.97617Q14.8794 7.31992 15.188 7.49961Q15.4966 7.6793 15.8404 7.6793Q16.1919 7.6793 16.4947 7.50352Q16.7993 7.32773 16.9868 6.98789Q17.1763 6.64805 17.1763 6.19297ZM20.3601 4.73594L20.3601 7.17539Q20.3601 7.42344 20.4753 7.53281Q20.5925 7.64023 20.8718 7.64023L21.4323 7.64023L21.4323 8.4L20.7116 8.4Q20.0964 8.4 19.7683 8.11289Q19.4401 7.82383 19.4401 7.17539L19.4401 4.73594L18.9206 4.73594L18.9206 3.9918L19.4401 3.9918L19.4401 2.89609L20.3601 2.89609L20.3601 3.9918L21.4323 3.9918L21.4323 4.73594L20.3601 4.73594ZM22.7365 3.40781Q22.4884 3.40781 22.3204 3.23984Q22.1525 3.07188 22.1525 2.82383Q22.1525 2.57578 22.3204 2.40781Q22.4884 2.23984 22.7365 2.23984Q22.9767 2.23984 23.1447 2.40781Q23.3126 2.57578 23.3126 2.82383Q23.3126 3.07188 23.1447 3.23984Q22.9767 3.40781 22.7365 3.40781ZM23.1837 3.9918L23.1837 8.4L22.2716 8.4L22.2716 3.9918L23.1837 3.9918ZM26.2957 8.47227Q25.6727 8.47227 25.1688 8.18906Q24.6649 7.90391 24.3758 7.38828Q24.0887 6.87266 24.0887 6.19297Q24.0887 5.51914 24.3836 4.99961Q24.6805 4.48008 25.1922 4.20078Q25.7039 3.91953 26.3367 3.91953Q26.9676 3.91953 27.4793 4.20078Q27.991 4.48008 28.2879 4.99961Q28.5848 5.51914 28.5848 6.19297Q28.5848 6.86484 28.2801 7.38438Q27.9754 7.90391 27.452 8.18906Q26.9285 8.47227 26.2957 8.47227ZM26.2957 7.6793Q26.6473 7.6793 26.9559 7.51133Q27.2645 7.34336 27.4559 7.00742Q27.6473 6.67148 27.6473 6.19297Q27.6473 5.7125 27.4637 5.38047Q27.2801 5.04844 26.9754 4.88047Q26.6727 4.7125 26.3192 4.7125Q25.9676 4.7125 25.6668 4.88047Q25.368 5.04844 25.1922 5.38047Q25.0164 5.7125 25.0164 6.19297Q25.0164 6.90391 25.3797 7.29258Q25.7449 7.6793 26.2957 7.6793ZM31.7122 3.91953Q32.2318 3.91953 32.6439 4.13633Q33.056 4.35117 33.2884 4.77695Q33.5208 5.20078 33.5208 5.80039L33.5208 8.4L32.6165 8.4L32.6165 5.93516Q32.6165 5.34336 32.3196 5.02891Q32.0247 4.7125 31.511 4.7125Q30.9993 4.7125 30.6985 5.02891Q30.3997 5.34336 30.3997 5.93516L30.3997 8.4L29.4876 8.4L29.4876 3.9918L30.3997 3.9918L30.3997 4.4957Q30.6243 4.22422 30.972 4.07188Q31.3196 3.91953 31.7122 3.91953ZM36.4569 6.17539Q36.4569 5.51133 36.7323 4.99961Q37.0077 4.48789 37.4842 4.20469Q37.9608 3.91953 38.5448 3.91953Q38.9764 3.91953 39.3963 4.10898Q39.8162 4.29648 40.0643 4.60703L40.0643 2.48008L40.9842 2.48008L40.9842 8.4L40.0643 8.4L40.0643 7.73594Q39.8397 8.05625 39.4432 8.26523Q39.0487 8.47227 38.537 8.47227Q37.9608 8.47227 37.4842 8.18125Q37.0077 7.88828 36.7323 7.36484Q36.4569 6.83945 36.4569 6.17539ZM40.0643 6.19297Q40.0643 5.73594 39.8748 5.4Q39.6873 5.06406 39.3827 4.88828Q39.0799 4.7125 38.7284 4.7125Q38.3768 4.7125 38.0721 4.88438Q37.7674 5.05625 37.5799 5.38828Q37.3924 5.72031 37.3924 6.17539Q37.3924 6.63242 37.5799 6.97617Q37.7674 7.31992 38.076 7.49961Q38.3846 7.6793 38.7284 7.6793Q39.0799 7.6793 39.3827 7.50352Q39.6873 7.32773 39.8748 6.98789Q40.0643 6.64805 40.0643 6.19297ZM46.2246 6.0875Q46.2246 6.33555 46.1914 6.53672L42.8242 6.53672Q42.8633 7.06406 43.2149 7.38438Q43.5684 7.70469 44.0801 7.70469Q44.8164 7.70469 45.1192 7.0875L46.1035 7.0875Q45.9043 7.69688 45.3789 8.08555Q44.8555 8.47227 44.0801 8.47227Q43.4473 8.47227 42.9473 8.18906Q42.4473 7.90391 42.1641 7.38828Q41.8809 6.87266 41.8809 6.19297Q41.8809 5.51133 42.1563 4.9957Q42.4317 4.48008 42.9317 4.20078Q43.4317 3.91953 44.0801 3.91953Q44.7031 3.91953 45.1914 4.19297Q45.6797 4.46445 45.9512 4.95664Q46.2246 5.44883 46.2246 6.0875ZM45.2715 5.80039Q45.2637 5.29648 44.9121 4.9918Q44.5606 4.68711 44.0391 4.68711Q43.5684 4.68711 43.2324 4.98789Q42.8965 5.28867 42.832 5.80039L45.2715 5.80039ZM52.5512 7.26328L50.223 7.26328L49.8246 8.4L48.8715 8.4L50.8637 2.83164L51.9203 2.83164L53.9125 8.4L52.9516 8.4L52.5512 7.26328ZM52.2953 6.51914L51.393 3.93516L50.4809 6.51914L52.2953 6.51914ZM58.7443 6.16758L60.1681 8.4L59.1369 8.4L58.1837 6.90391L57.2873 8.4L56.3361 8.4L57.7599 6.23203L56.3361 3.9918L57.3673 3.9918L58.3205 5.48789L59.2169 3.9918L60.1681 3.9918L58.7443 6.16758ZM61.2324 7.15977Q62 6.4957 62.4433 6.06797Q62.8886 5.64023 63.1836 5.17734Q63.4804 4.7125 63.4804 4.24766Q63.4804 3.76719 63.2519 3.4957Q63.0234 3.22422 62.5351 3.22422Q62.0644 3.22422 61.8046 3.525Q61.5449 3.82383 61.5273 4.32773L60.6484 4.32773Q60.6718 3.41563 61.1953 2.9332Q61.7207 2.44883 62.5273 2.44883Q63.4003 2.44883 63.8925 2.9293Q64.3847 3.40781 64.3847 4.20859Q64.3847 4.78477 64.0918 5.31602Q63.8007 5.84727 63.3964 6.26719Q62.9921 6.68711 62.3671 7.23984L62.0078 7.56016L64.5449 7.56016L64.5449 8.31992L60.6562 8.31992L60.6562 7.65586L61.2324 7.15977ZM69.5592 9.88828Q68.776 9.13633 68.3561 7.97617Q67.9362 6.81602 67.9362 5.48789Q67.9362 4.12852 68.3874 2.92148Q68.8405 1.7125 69.7194 0.927344L70.6647 0.927344L70.6647 1.01523Q69.7448 1.86484 69.2799 3.04844Q68.8151 4.23203 68.8151 5.48789Q68.8151 6.69688 69.2467 7.82578Q69.6803 8.95273 70.5046 9.80039L70.5046 9.88828L69.5592 9.88828ZM72.5441 4.73594L72.5441 7.17539Q72.5441 7.42344 72.6593 7.53281Q72.7765 7.64023 73.0558 7.64023L73.6163 7.64023L73.6163 8.4L72.8956 8.4Q72.2804 8.4 71.9523 8.11289Q71.6241 7.82383 71.6241 7.17539L71.6241 4.73594L71.1046 4.73594L71.1046 3.9918L71.6241 3.9918L71.6241 2.89609L72.5441 2.89609L72.5441 3.9918L73.6163 3.9918L73.6163 4.73594L72.5441 4.73594ZM78.4966 6.0875Q78.4966 6.33555 78.4634 6.53672L75.0962 6.53672Q75.1353 7.06406 75.4869 7.38438Q75.8404 7.70469 76.3521 7.70469Q77.0884 7.70469 77.3912 7.0875L78.3755 7.0875Q78.1763 7.69688 77.6509 8.08555Q77.1275 8.47227 76.3521 8.47227Q75.7193 8.47227 75.2193 8.18906Q74.7193 7.90391 74.4361 7.38828Q74.1529 6.87266 74.1529 6.19297Q74.1529 5.51133 74.4283 4.9957Q74.7037 4.48008 75.2037 4.20078Q75.7037 3.91953 76.3521 3.91953Q76.9751 3.91953 77.4634 4.19297Q77.9517 4.46445 78.2232 4.95664Q78.4966 5.44883 78.4966 6.0875ZM77.5435 5.80039Q77.5357 5.29648 77.1841 4.9918Q76.8326 4.68711 76.3111 4.68711Q75.8404 4.68711 75.5044 4.98789Q75.1685 5.28867 75.104 5.80039L77.5435 5.80039ZM84.7275 3.91953Q85.2471 3.91953 85.6592 4.13633Q86.0713 4.35117 86.3076 4.77695Q86.544 5.20078 86.544 5.80039L86.544 8.4L85.6397 8.4L85.6397 5.93516Q85.6397 5.34336 85.3428 5.02891Q85.0479 4.7125 84.5361 4.7125Q84.0244 4.7125 83.7236 5.02891Q83.4248 5.34336 83.4248 5.93516L83.4248 8.4L82.5205 8.4L82.5205 5.93516Q82.5205 5.34336 82.2236 5.02891Q81.9287 4.7125 81.415 4.7125Q80.9033 4.7125 80.6025 5.02891Q80.3037 5.34336 80.3037 5.93516L80.3037 8.4L79.3916 8.4L79.3916 3.9918L80.3037 3.9918L80.3037 4.4957Q80.5283 4.22422 80.8721 4.07188Q81.2158 3.91953 81.6084 3.91953Q82.1357 3.91953 82.5518 4.14414Q82.9678 4.36875 83.1924 4.79258Q83.3916 4.39219 83.8154 4.15586Q84.2393 3.91953 84.7275 3.91953ZM88.6157 4.64023Q88.8481 4.33555 89.2485 4.12852Q89.6489 3.91953 90.1528 3.91953Q90.7271 3.91953 91.2036 4.20469Q91.6802 4.48789 91.9517 4.99961Q92.2231 5.51133 92.2231 6.17539Q92.2231 6.83945 91.9517 7.36484Q91.6802 7.88828 91.2036 8.18125Q90.7271 8.47227 90.1528 8.47227Q89.6489 8.47227 89.2563 8.26914Q88.8638 8.06406 88.6157 7.75938L88.6157 10.4957L87.7036 10.4957L87.7036 3.9918L88.6157 3.9918L88.6157 4.64023ZM91.2954 6.17539Q91.2954 5.72031 91.1079 5.38828Q90.9204 5.05625 90.6118 4.88438Q90.3032 4.7125 89.9517 4.7125Q89.6079 4.7125 89.2993 4.88828Q88.9927 5.06406 88.8032 5.4Q88.6157 5.73594 88.6157 6.19297Q88.6157 6.64805 88.8032 6.98789Q88.9927 7.32773 89.2993 7.50352Q89.6079 7.6793 89.9517 7.6793Q90.3032 7.6793 90.6118 7.49961Q90.9204 7.31992 91.1079 6.97617Q91.2954 6.63242 91.2954 6.17539ZM94.7272 8.47227Q94.2077 8.47227 93.7956 8.28477Q93.3835 8.09531 93.1432 7.77305Q92.905 7.44883 92.8874 7.04844L93.8327 7.04844Q93.8561 7.32773 94.1003 7.51719Q94.3444 7.70469 94.7116 7.70469Q95.0964 7.70469 95.3073 7.55625Q95.5202 7.40781 95.5202 7.17539Q95.5202 6.92734 95.2839 6.8082Q95.0475 6.68711 94.5358 6.54453Q94.0397 6.40781 93.7272 6.28086Q93.4167 6.15195 93.1882 5.88828Q92.9596 5.62461 92.9596 5.19297Q92.9596 4.83945 93.1667 4.54844Q93.3757 4.25547 93.7624 4.0875Q94.1511 3.91953 94.6569 3.91953Q95.4089 3.91953 95.8679 4.30039Q96.3288 4.6793 96.36 5.33555L95.4479 5.33555Q95.4245 5.04063 95.2077 4.86484Q94.9929 4.68711 94.6237 4.68711Q94.2643 4.68711 94.071 4.82383Q93.8796 4.96055 93.8796 5.1832Q93.8796 5.36094 94.0065 5.48008Q94.1354 5.59922 94.319 5.66758Q94.5046 5.73594 94.8639 5.83945Q95.3444 5.96836 95.6511 6.10117Q95.9596 6.23203 96.1843 6.48789Q96.4089 6.74375 96.4167 7.16758Q96.4167 7.54453 96.2077 7.84141Q96.0007 8.13633 95.6198 8.3043Q95.2409 8.47227 94.7272 8.47227ZM99.1769 6.19297Q99.1769 5.51133 99.4523 4.9957Q99.7277 4.48008 100.216 4.20078Q100.704 3.91953 101.335 3.91953Q102.136 3.91953 102.659 4.30039Q103.185 4.6793 103.368 5.38438L102.384 5.38438Q102.265 5.05625 101.999 4.87266Q101.735 4.68711 101.335 4.68711Q100.776 4.68711 100.444 5.08359Q100.112 5.48008 100.112 6.19297Q100.112 6.90391 100.444 7.3043Q100.776 7.70469 101.335 7.70469Q102.128 7.70469 102.384 7.00742L103.368 7.00742Q103.177 7.6793 102.648 8.07578Q102.12 8.47227 101.335 8.47227Q100.704 8.47227 100.216 8.18906Q99.7277 7.90391 99.4523 7.38828Q99.1769 6.87266 99.1769 6.19297ZM106.192 8.47227Q105.569 8.47227 105.065 8.18906Q104.561 7.90391 104.272 7.38828Q103.985 6.87266 103.985 6.19297Q103.985 5.51914 104.28 4.99961Q104.576 4.48008 105.088 4.20078Q105.6 3.91953 106.233 3.91953Q106.864 3.91953 107.375 4.20078Q107.887 4.48008 108.184 4.99961Q108.481 5.51914 108.481 6.19297Q108.481 6.86484 108.176 7.38438Q107.871 7.90391 107.348 8.18906Q106.825 8.47227 106.192 8.47227ZM106.192 7.6793Q106.543 7.6793 106.852 7.51133Q107.16 7.34336 107.352 7.00742Q107.543 6.67148 107.543 6.19297Q107.543 5.7125 107.36 5.38047Q107.176 5.04844 106.871 4.88047Q106.569 4.7125 106.215 4.7125Q105.864 4.7125 105.563 4.88047Q105.264 5.04844 105.088 5.38047Q104.912 5.7125 104.912 6.19297Q104.912 6.90391 105.276 7.29258Q105.641 7.6793 106.192 7.6793ZM113.376 3.9918L113.376 8.4L112.464 8.4L112.464 7.88047Q112.249 8.15195 111.899 8.3082Q111.552 8.46445 111.161 8.46445Q110.639 8.46445 110.227 8.24961Q109.815 8.03281 109.579 7.60898Q109.345 7.1832 109.345 6.58359L109.345 3.9918L110.249 3.9918L110.249 6.44883Q110.249 7.04063 110.544 7.35703Q110.841 7.67148 111.352 7.67148Q111.864 7.67148 112.163 7.35703Q112.464 7.04063 112.464 6.44883L112.464 3.9918L113.376 3.9918ZM115.488 4.63242Q115.689 4.29648 116.021 4.10898Q116.353 3.91953 116.808 3.91953L116.808 4.86484L116.576 4.86484Q116.04 4.86484 115.763 5.13633Q115.488 5.40781 115.488 6.07969L115.488 8.4L114.576 8.4L114.576 3.9918L115.488 3.9918L115.488 4.63242ZM119.247 8.47227Q118.728 8.47227 118.316 8.28477Q117.903 8.09531 117.663 7.77305Q117.425 7.44883 117.407 7.04844L118.353 7.04844Q118.376 7.32773 118.62 7.51719Q118.864 7.70469 119.232 7.70469Q119.616 7.70469 119.827 7.55625Q120.04 7.40781 120.04 7.17539Q120.04 6.92734 119.804 6.8082Q119.568 6.68711 119.056 6.54453Q118.56 6.40781 118.247 6.28086Q117.937 6.15195 117.708 5.88828Q117.48 5.62461 117.48 5.19297Q117.48 4.83945 117.687 4.54844Q117.896 4.25547 118.282 4.0875Q118.671 3.91953 119.177 3.91953Q119.929 3.91953 120.388 4.30039Q120.849 4.6793 120.88 5.33555L119.968 5.33555Q119.944 5.04063 119.728 4.86484Q119.513 4.68711 119.144 4.68711Q118.784 4.68711 118.591 4.82383Q118.4 4.96055 118.4 5.1832Q118.4 5.36094 118.527 5.48008Q118.655 5.59922 118.839 5.66758Q119.025 5.73594 119.384 5.83945Q119.864 5.96836 120.171 6.10117Q120.48 6.23203 120.704 6.48789Q120.929 6.74375 120.937 7.16758Q120.937 7.54453 120.728 7.84141Q120.521 8.13633 120.14 8.3043Q119.761 8.47227 119.247 8.47227ZM121.697 9.88828L121.697 9.80039Q122.519 8.95273 122.951 7.82578Q123.384 6.69688 123.384 5.48789Q123.384 4.23203 122.92 3.04844Q122.457 1.86484 121.537 1.01523L121.537 0.927344L122.48 0.927344Q123.359 1.7125 123.81 2.92148Q124.263 4.12852 124.263 5.48789Q124.263 6.81602 123.843 7.97617Q123.424 9.13633 122.64 9.88828L121.697 9.88828Z" fill="#000000" transform="translate(3 23)" />
        <path d="M2.33521 4.53955L0.880127 4.53955L0.505371 5.25L-0.090332 5.25L1.77002 1.76978L2.43042 1.76978L3.0603 5.25L2.45972 5.25L2.33521 4.53955ZM2.25952 4.09521L1.9751 2.45947L1.1145 4.09521L2.25952 4.09521ZM6.57948 2.49487L6.09486 5.25L5.52479 5.25L5.57973 4.92529Q5.41493 5.09497 5.18178 5.19263Q4.94984 5.29028 4.70448 5.29028Q4.26991 5.29028 4.0099 5.05591Q3.74989 4.82031 3.74989 4.3894Q3.74989 4.27466 3.77553 4.11475L4.05995 2.49487L4.62514 2.49487L4.35536 4.03052Q4.33461 4.16968 4.33461 4.22949Q4.33461 4.50537 4.4872 4.65063Q4.63978 4.79468 4.90956 4.79468Q5.2245 4.79468 5.44423 4.60791Q5.66518 4.41992 5.73476 4.0647L6.00941 2.49487L6.57948 2.49487ZM7.86037 5.29517Q7.57473 5.29517 7.33913 5.19751Q7.10476 5.09985 6.96926 4.92285Q6.83498 4.74463 6.83498 4.51514Q6.83498 4.47485 6.84475 4.40527L7.40017 4.40527Q7.37941 4.59448 7.51491 4.72021Q7.65041 4.84473 7.89455 4.84473Q8.13503 4.84473 8.29006 4.7605Q8.44509 4.67505 8.44509 4.51025Q8.44509 4.36987 8.31691 4.28564Q8.18996 4.2002 7.91042 4.09521Q7.64553 3.99023 7.47951 3.8999Q7.31472 3.80957 7.19509 3.6521Q7.07546 3.49463 7.07546 3.26025Q7.07546 3.01978 7.21218 2.83789Q7.35012 2.65479 7.5967 2.55225Q7.8445 2.44971 8.16555 2.44971Q8.45485 2.44971 8.6819 2.54736Q8.91018 2.64502 9.03713 2.82324Q9.1653 3.00024 9.1653 3.22974Q9.1653 3.30054 9.16042 3.33472L8.61965 3.33472Q8.6404 3.1394 8.50734 3.01978Q8.37551 2.90015 8.13015 2.90015Q7.9153 2.90015 7.78225 2.99048Q7.65041 3.07959 7.65041 3.23462Q7.65041 3.38965 7.78469 3.48242Q7.92019 3.5752 8.19973 3.68506Q8.45485 3.78516 8.61477 3.87549Q8.77468 3.9646 8.88942 4.11475Q9.00539 4.26489 9.00539 4.4895Q9.00539 4.73486 8.85769 4.91797Q8.70998 5.09985 8.44997 5.19751Q8.18996 5.29517 7.86037 5.29517ZM10.5304 5.29517Q10.2447 5.29517 10.0091 5.19751Q9.77476 5.09985 9.63926 4.92285Q9.50498 4.74463 9.50498 4.51514Q9.50498 4.47485 9.51475 4.40527L10.0702 4.40527Q10.0494 4.59448 10.1849 4.72021Q10.3204 4.84473 10.5646 4.84473Q10.805 4.84473 10.9601 4.7605Q11.1151 4.67505 11.1151 4.51025Q11.1151 4.36987 10.9869 4.28564Q10.86 4.2002 10.5804 4.09521Q10.3155 3.99023 10.1495 3.8999Q9.98472 3.80957 9.86509 3.6521Q9.74546 3.49463 9.74546 3.26025Q9.74546 3.01978 9.88218 2.83789Q10.0201 2.65479 10.2667 2.55225Q10.5145 2.44971 10.8355 2.44971Q11.1249 2.44971 11.3519 2.54736Q11.5802 2.64502 11.7071 2.82324Q11.8353 3.00024 11.8353 3.22974Q11.8353 3.30054 11.8304 3.33472L11.2896 3.33472Q11.3104 3.1394 11.1773 3.01978Q11.0455 2.90015 10.8001 2.90015Q10.5853 2.90015 10.4522 2.99048Q10.3204 3.07959 10.3204 3.23462Q10.3204 3.38965 10.4547 3.48242Q10.5902 3.5752 10.8697 3.68506Q11.1249 3.78516 11.2848 3.87549Q11.4447 3.9646 11.5594 4.11475Q11.6754 4.26489 11.6754 4.4895Q11.6754 4.73486 11.5277 4.91797Q11.38 5.09985 11.12 5.19751Q10.86 5.29517 10.5304 5.29517ZM13.0246 2.12988Q12.8903 2.12988 12.8049 2.04565Q12.7194 1.96021 12.7194 1.82959Q12.7194 1.65503 12.8525 1.52808Q12.9855 1.3999 13.1552 1.3999Q13.2895 1.3999 13.3725 1.48535Q13.4555 1.56958 13.4555 1.7002Q13.4555 1.87476 13.3249 2.00293Q13.1955 2.12988 13.0246 2.12988ZM13.2394 2.49487L12.7548 5.25L12.1847 5.25L12.6706 2.49487L13.2394 2.49487ZM15.0597 3.85962Q15.1354 3.44458 15.3624 3.12476Q15.5895 2.80493 15.9191 2.62793Q16.2499 2.44971 16.61 2.44971Q16.9347 2.44971 17.1544 2.57788Q17.3754 2.70483 17.4852 2.89526L17.5548 2.49487L18.1297 2.49487L17.6451 5.25L17.0702 5.25L17.1446 4.83984Q16.9652 5.03516 16.6918 5.16577Q16.4195 5.29517 16.0997 5.29517Q15.7897 5.29517 15.5467 5.15479Q15.305 5.0144 15.1671 4.75806Q15.0304 4.50049 15.0304 4.16479Q15.0304 4.01465 15.0597 3.85962ZM17.3155 3.87061Q17.3351 3.77539 17.3351 3.66553Q17.3351 3.32983 17.1373 3.13818Q16.9396 2.94531 16.6454 2.94531Q16.4244 2.94531 16.2145 3.05273Q16.0045 3.16016 15.8495 3.36768Q15.6944 3.5752 15.6444 3.85962Q15.6249 3.95483 15.6249 4.0647Q15.6249 4.40527 15.8226 4.60303Q16.0204 4.79956 16.3146 4.79956Q16.5355 4.79956 16.7455 4.6897Q16.9554 4.57983 17.1105 4.36743Q17.2655 4.15503 17.3155 3.87061ZM19.5495 4.73975L20.7251 2.49487L21.3403 2.49487L19.8047 5.25L19.115 5.25L18.5547 2.49487L19.165 2.49487L19.5495 4.73975ZM22.9544 2.44971Q23.4696 2.44971 23.7772 2.74023Q24.0848 3.02954 24.0848 3.52026Q24.0848 3.63501 24.0604 3.79492Q24.0396 3.90479 23.9896 4.0647L21.8851 4.0647Q21.8802 4.1001 21.8802 4.16968Q21.8802 4.46509 22.0621 4.64087Q22.2452 4.81543 22.5394 4.81543Q23.0045 4.81543 23.2547 4.42969L23.87 4.42969Q23.6795 4.81055 23.3097 5.05347Q22.9398 5.29517 22.4552 5.29517Q22.1097 5.29517 21.8497 5.16089Q21.5897 5.02539 21.4444 4.77271Q21.3004 4.52002 21.3004 4.17944Q21.3004 4.0354 21.3297 3.87061Q21.4054 3.44458 21.6349 3.12231Q21.8656 2.80005 22.2074 2.62549Q22.5504 2.44971 22.9544 2.44971ZM23.4903 3.65454Q23.5001 3.56543 23.5001 3.52515Q23.5001 3.25049 23.317 3.09058Q23.1351 2.92944 22.8446 2.92944Q22.5394 2.92944 22.294 3.12476Q22.0499 3.32007 21.9596 3.65454L23.4903 3.65454ZM24.4147 3.87061Q24.4904 3.44458 24.7174 3.12231Q24.9445 2.80005 25.2814 2.62549Q25.6195 2.44971 26.015 2.44971Q26.5155 2.44971 26.7999 2.68774Q27.0856 2.92456 27.1246 3.36523L26.5094 3.36523Q26.4703 3.16016 26.3251 3.04541Q26.1798 2.92944 25.9296 2.92944Q25.5804 2.92944 25.3302 3.17725Q25.08 3.42505 24.9994 3.87061Q24.975 4.03052 24.975 4.12939Q24.975 4.46021 25.1398 4.63843Q25.3046 4.81543 25.6 4.81543Q26.0956 4.81543 26.33 4.37964L26.9452 4.37964Q26.7499 4.79956 26.3776 5.04736Q26.0053 5.29517 25.5145 5.29517Q24.9945 5.29517 24.6893 4.99731Q24.3854 4.69946 24.3854 4.19043Q24.3854 4.0354 24.4147 3.87061ZM31.0802 4.53955L29.6251 4.53955L29.2504 5.25L28.6547 5.25L30.515 1.76978L31.1754 1.76978L31.8053 5.25L31.2047 5.25L31.0802 4.53955ZM31.0045 4.09521L30.7201 2.45947L29.8595 4.09521L31.0045 4.09521ZM35.5244 2.44971Q36.0396 2.44971 36.3472 2.74023Q36.6548 3.02954 36.6548 3.52026Q36.6548 3.63501 36.6304 3.79492Q36.6096 3.90479 36.5596 4.0647L34.4551 4.0647Q34.4502 4.1001 34.4502 4.16968Q34.4502 4.46509 34.6321 4.64087Q34.8152 4.81543 35.1094 4.81543Q35.5745 4.81543 35.8247 4.42969L36.44 4.42969Q36.2495 4.81055 35.8797 5.05347Q35.5098 5.29517 35.0252 5.29517Q34.6797 5.29517 34.4197 5.16089Q34.1597 5.02539 34.0144 4.77271Q33.8704 4.52002 33.8704 4.17944Q33.8704 4.0354 33.8997 3.87061Q33.9754 3.44458 34.2049 3.12231Q34.4356 2.80005 34.7774 2.62549Q35.1204 2.44971 35.5244 2.44971ZM36.0603 3.65454Q36.0701 3.56543 36.0701 3.52515Q36.0701 3.25049 35.887 3.09058Q35.7051 2.92944 35.4146 2.92944Q35.1094 2.92944 34.864 3.12476Q34.6199 3.32007 34.5296 3.65454L36.0603 3.65454ZM37.7305 4.48462Q37.7195 4.55542 37.7195 4.57495Q37.7195 4.67993 37.7842 4.72754Q37.8502 4.77515 38.0003 4.77515L38.3494 4.77515L38.2652 5.25L37.8148 5.25Q37.4852 5.25 37.3094 5.11816Q37.1348 4.98511 37.1348 4.69458Q37.1348 4.58472 37.1556 4.48462L37.4254 2.95996L37.0994 2.95996L37.18 2.49487L37.5096 2.49487L37.6304 1.81006L38.2054 1.81006L38.0845 2.49487L38.7498 2.49487L38.6705 2.95996L38.0003 2.95996L37.7305 4.48462ZM43.195 2.66943Q43.145 2.96973 42.9497 3.16992Q42.7556 3.37012 42.4699 3.46533Q42.6994 3.50439 42.8496 3.69971Q42.9997 3.89502 42.9997 4.15991Q42.9997 4.24048 42.9851 4.31494Q42.9399 4.57983 42.7641 4.79224Q42.5896 5.00464 42.3076 5.12793Q42.0256 5.25 41.6801 5.25L40.2897 5.25L40.905 1.77466L42.2294 1.77466Q42.7055 1.77466 42.957 1.97974Q43.2097 2.18481 43.2097 2.50952Q43.2097 2.58521 43.195 2.66943ZM42.6054 2.74023Q42.6152 2.66943 42.6152 2.63525Q42.6152 2.43994 42.4797 2.33008Q42.3454 2.22021 42.1 2.22021L41.3945 2.22021L41.215 3.25049L41.9206 3.25049Q42.2001 3.25049 42.382 3.11499Q42.5651 2.97949 42.6054 2.74023ZM42.4248 4.25513Q42.4345 4.17456 42.4345 4.14038Q42.4345 3.9353 42.2844 3.81567Q42.1354 3.69482 41.8852 3.69482L41.1345 3.69482L40.9404 4.80444L41.7094 4.80444Q42 4.80444 42.1892 4.6604Q42.3796 4.51514 42.4248 4.25513ZM46.6194 2.44971Q47.1346 2.44971 47.4422 2.74023Q47.7498 3.02954 47.7498 3.52026Q47.7498 3.63501 47.7254 3.79492Q47.7046 3.90479 47.6546 4.0647L45.5501 4.0647Q45.5452 4.1001 45.5452 4.16968Q45.5452 4.46509 45.7271 4.64087Q45.9102 4.81543 46.2044 4.81543Q46.6695 4.81543 46.9197 4.42969L47.535 4.42969Q47.3445 4.81055 46.9747 5.05347Q46.6048 5.29517 46.1202 5.29517Q45.7747 5.29517 45.5147 5.16089Q45.2547 5.02539 45.1094 4.77271Q44.9654 4.52002 44.9654 4.17944Q44.9654 4.0354 44.9947 3.87061Q45.0704 3.44458 45.2999 3.12231Q45.5306 2.80005 45.8724 2.62549Q46.2154 2.44971 46.6194 2.44971ZM47.1553 3.65454Q47.1651 3.56543 47.1651 3.52515Q47.1651 3.25049 46.982 3.09058Q46.8001 2.92944 46.5096 2.92944Q46.2044 2.92944 45.959 3.12476Q45.7149 3.32007 45.6246 3.65454L47.1553 3.65454ZM49.9095 2.44971Q50.3453 2.44971 50.6029 2.68286Q50.8604 2.91479 50.8604 3.35059Q50.8604 3.46045 50.8348 3.62524L50.5455 5.25L49.9803 5.25L50.255 3.70947Q50.2745 3.57031 50.2745 3.5105Q50.2745 3.23462 50.1219 3.09058Q49.9705 2.94531 49.6996 2.94531Q49.3748 2.94531 49.1527 3.14307Q48.9305 3.3396 48.8695 3.70947L48.8695 3.69482L48.5948 5.25L48.0247 5.25L48.5106 2.49487L49.0794 2.49487L49.0245 2.8147Q49.1954 2.64502 49.4273 2.54736Q49.6605 2.44971 49.9095 2.44971ZM56.6003 2.44971Q57.0349 2.44971 57.2949 2.6853Q57.5549 2.91968 57.5549 3.35059Q57.5549 3.46533 57.5305 3.62524L57.24 5.25L56.6748 5.25L56.9494 3.70947Q56.9702 3.57031 56.9702 3.5105Q56.9702 3.23462 56.8176 3.09058Q56.665 2.94531 56.3952 2.94531Q56.0705 2.94531 55.8471 3.14307Q55.625 3.3396 55.5652 3.70947L55.2905 5.25L54.7253 5.25L55 3.70947Q55.0195 3.57031 55.0195 3.5105Q55.0195 3.23462 54.8669 3.09058Q54.7155 2.94531 54.4445 2.94531Q54.1198 2.94531 53.8977 3.14307Q53.6755 3.3396 53.6145 3.70947L53.6145 3.69482L53.3398 5.25L52.7697 5.25L53.2556 2.49487L53.8244 2.49487L53.7695 2.8147Q53.9355 2.64502 54.1674 2.54736Q54.4006 2.44971 54.6496 2.44971Q54.9804 2.44971 55.2173 2.59009Q55.4553 2.73047 55.5505 2.99536Q55.7153 2.74512 56.0046 2.59741Q56.2951 2.44971 56.6003 2.44971ZM59.6444 2.44971Q60.1596 2.44971 60.4672 2.74023Q60.7748 3.02954 60.7748 3.52026Q60.7748 3.63501 60.7504 3.79492Q60.7296 3.90479 60.6796 4.0647L58.5751 4.0647Q58.5702 4.1001 58.5702 4.16968Q58.5702 4.46509 58.7521 4.64087Q58.9352 4.81543 59.2294 4.81543Q59.6945 4.81543 59.9447 4.42969L60.56 4.42969Q60.3695 4.81055 59.9997 5.05347Q59.6298 5.29517 59.1452 5.29517Q58.7997 5.29517 58.5397 5.16089Q58.2797 5.02539 58.1344 4.77271Q57.9904 4.52002 57.9904 4.17944Q57.9904 4.0354 58.0197 3.87061Q58.0954 3.44458 58.3249 3.12231Q58.5556 2.80005 58.8974 2.62549Q59.2404 2.44971 59.6444 2.44971ZM60.1803 3.65454Q60.1901 3.56543 60.1901 3.52515Q60.1901 3.25049 60.007 3.09058Q59.8251 2.92944 59.5346 2.92944Q59.2294 2.92944 58.984 3.12476Q58.7399 3.32007 58.6496 3.65454L60.1803 3.65454ZM59.7396 1.84058L58.945 2.27026L59.0255 1.82471L59.8153 1.40967L60.455 1.82471L60.3756 2.27026L59.7396 1.84058ZM64.8803 2.44971Q65.3149 2.44971 65.5749 2.6853Q65.8349 2.91968 65.8349 3.35059Q65.8349 3.46533 65.8105 3.62524L65.52 5.25L64.9548 5.25L65.2294 3.70947Q65.2502 3.57031 65.2502 3.5105Q65.2502 3.23462 65.0976 3.09058Q64.945 2.94531 64.6752 2.94531Q64.3505 2.94531 64.1271 3.14307Q63.905 3.3396 63.8452 3.70947L63.5705 5.25L63.0053 5.25L63.28 3.70947Q63.2995 3.57031 63.2995 3.5105Q63.2995 3.23462 63.1469 3.09058Q62.9955 2.94531 62.7245 2.94531Q62.3998 2.94531 62.1777 3.14307Q61.9555 3.3396 61.8945 3.70947L61.8945 3.69482L61.6198 5.25L61.0497 5.25L61.5356 2.49487L62.1044 2.49487L62.0495 2.8147Q62.2155 2.64502 62.4474 2.54736Q62.6806 2.44971 62.9296 2.44971Q63.2604 2.44971 63.4973 2.59009Q63.7353 2.73047 63.8305 2.99536Q63.9953 2.74512 64.2846 2.59741Q64.5751 2.44971 64.8803 2.44971ZM67.9244 2.44971Q68.4396 2.44971 68.7472 2.74023Q69.0548 3.02954 69.0548 3.52026Q69.0548 3.63501 69.0304 3.79492Q69.0096 3.90479 68.9596 4.0647L66.8551 4.0647Q66.8502 4.1001 66.8502 4.16968Q66.8502 4.46509 67.0321 4.64087Q67.2152 4.81543 67.5094 4.81543Q67.9745 4.81543 68.2247 4.42969L68.84 4.42969Q68.6495 4.81055 68.2797 5.05347Q67.9098 5.29517 67.4252 5.29517Q67.0797 5.29517 66.8197 5.16089Q66.5597 5.02539 66.4144 4.77271Q66.2704 4.52002 66.2704 4.17944Q66.2704 4.0354 66.2997 3.87061Q66.3754 3.44458 66.6049 3.12231Q66.8356 2.80005 67.1774 2.62549Q67.5204 2.44971 67.9244 2.44971ZM68.4603 3.65454Q68.4701 3.56543 68.4701 3.52515Q68.4701 3.25049 68.287 3.09058Q68.1051 2.92944 67.8146 2.92944Q67.5094 2.92944 67.264 3.12476Q67.0199 3.32007 66.9296 3.65454L68.4603 3.65454ZM71.6305 4.48462Q71.6195 4.55542 71.6195 4.57495Q71.6195 4.67993 71.6842 4.72754Q71.7502 4.77515 71.9003 4.77515L72.2494 4.77515L72.1652 5.25L71.7148 5.25Q71.3852 5.25 71.2094 5.11816Q71.0348 4.98511 71.0348 4.69458Q71.0348 4.58472 71.0556 4.48462L71.3253 2.95996L70.9994 2.95996L71.08 2.49487L71.4096 2.49487L71.5304 1.81006L72.1054 1.81006L71.9845 2.49487L72.6498 2.49487L72.5705 2.95996L71.9003 2.95996L71.6305 4.48462ZM74.3694 2.44971Q74.8846 2.44971 75.1922 2.74023Q75.4998 3.02954 75.4998 3.52026Q75.4998 3.63501 75.4754 3.79492Q75.4546 3.90479 75.4046 4.0647L73.3001 4.0647Q73.2952 4.1001 73.2952 4.16968Q73.2952 4.46509 73.4771 4.64087Q73.6602 4.81543 73.9544 4.81543Q74.4195 4.81543 74.6697 4.42969L75.285 4.42969Q75.0945 4.81055 74.7247 5.05347Q74.3548 5.29517 73.8702 5.29517Q73.5247 5.29517 73.2647 5.16089Q73.0047 5.02539 72.8594 4.77271Q72.7154 4.52002 72.7154 4.17944Q72.7154 4.0354 72.7447 3.87061Q72.8204 3.44458 73.0499 3.12231Q73.2806 2.80005 73.6224 2.62549Q73.9654 2.44971 74.3694 2.44971ZM74.9053 3.65454Q74.9151 3.56543 74.9151 3.52515Q74.9151 3.25049 74.732 3.09058Q74.5501 2.92944 74.2596 2.92944Q73.9544 2.92944 73.709 3.12476Q73.4649 3.32007 73.3746 3.65454L74.9053 3.65454ZM79.6053 2.44971Q80.0399 2.44971 80.2999 2.6853Q80.5599 2.91968 80.5599 3.35059Q80.5599 3.46533 80.5355 3.62524L80.245 5.25L79.6798 5.25L79.9544 3.70947Q79.9752 3.57031 79.9752 3.5105Q79.9752 3.23462 79.8226 3.09058Q79.67 2.94531 79.4002 2.94531Q79.0755 2.94531 78.8521 3.14307Q78.63 3.3396 78.5702 3.70947L78.2955 5.25L77.7303 5.25L78.005 3.70947Q78.0245 3.57031 78.0245 3.5105Q78.0245 3.23462 77.8719 3.09058Q77.7205 2.94531 77.4495 2.94531Q77.1248 2.94531 76.9027 3.14307Q76.6805 3.3396 76.6195 3.70947L76.6195 3.69482L76.3448 5.25L75.7747 5.25L76.2606 2.49487L76.8294 2.49487L76.7745 2.8147Q76.9405 2.64502 77.1724 2.54736Q77.4056 2.44971 77.6546 2.44971Q77.9854 2.44971 78.2223 2.59009Q78.4603 2.73047 78.5555 2.99536Q78.7203 2.74512 79.0096 2.59741Q79.3001 2.44971 79.6053 2.44971ZM81.9548 2.90015Q82.1355 2.70972 82.4077 2.58032Q82.6799 2.44971 82.9949 2.44971Q83.3098 2.44971 83.5552 2.58521Q83.8006 2.71948 83.9348 2.96973Q84.0703 3.21997 84.0703 3.55444Q84.0703 3.69971 84.0398 3.85962Q83.9653 4.27466 83.7371 4.60303Q83.51 4.93018 83.1817 5.11328Q82.8545 5.29517 82.4944 5.29517Q82.1795 5.29517 81.9573 5.16821Q81.7351 5.04004 81.6094 4.84961L81.3103 6.55981L80.7402 6.55981L81.4556 2.49487L82.0244 2.49487L81.9548 2.90015ZM83.46 3.85962Q83.4795 3.7644 83.4795 3.65454Q83.4795 3.32007 83.2818 3.1333Q83.0852 2.94531 82.7849 2.94531Q82.5701 2.94531 82.3577 3.05518Q82.1453 3.16504 81.9902 3.375Q81.8352 3.58496 81.7852 3.87061Q81.7644 3.9646 81.7644 4.07446Q81.7644 4.41016 81.9622 4.60547Q82.1599 4.79956 82.4553 4.79956Q82.6751 4.79956 82.8875 4.68726Q83.0999 4.57495 83.2549 4.36011Q83.4099 4.14526 83.46 3.85962ZM85.3754 5.29517Q85.0897 5.29517 84.8541 5.19751Q84.6198 5.09985 84.4843 4.92285Q84.35 4.74463 84.35 4.51514Q84.35 4.47485 84.3597 4.40527L84.9152 4.40527Q84.8944 4.59448 85.0299 4.72021Q85.1654 4.84473 85.4095 4.84473Q85.65 4.84473 85.8051 4.7605Q85.9601 4.67505 85.9601 4.51025Q85.9601 4.36987 85.8319 4.28564Q85.705 4.2002 85.4254 4.09521Q85.1605 3.99023 84.9945 3.8999Q84.8297 3.80957 84.7101 3.6521Q84.5905 3.49463 84.5905 3.26025Q84.5905 3.01978 84.7272 2.83789Q84.8651 2.65479 85.1117 2.55225Q85.3595 2.44971 85.6805 2.44971Q85.9698 2.44971 86.1969 2.54736Q86.4252 2.64502 86.5521 2.82324Q86.6803 3.00024 86.6803 3.22974Q86.6803 3.30054 86.6754 3.33472L86.1346 3.33472Q86.1554 3.1394 86.0223 3.01978Q85.8905 2.90015 85.6451 2.90015Q85.4303 2.90015 85.2972 2.99048Q85.1654 3.07959 85.1654 3.23462Q85.1654 3.38965 85.2997 3.48242Q85.4352 3.5752 85.7147 3.68506Q85.9698 3.78516 86.1298 3.87549Q86.2897 3.9646 86.4044 4.11475Q86.5204 4.26489 86.5204 4.4895Q86.5204 4.73486 86.3727 4.91797Q86.225 5.09985 85.965 5.19751Q85.705 5.29517 85.3754 5.29517Z" fill="#737373" transform="translate(3 32)" />
      </g>
      <path d="M1.05762 11.625L1.05762 2.89746L4.00488 2.89746Q5.0332 2.89746 5.68652 3.2666Q6.33984 3.63574 6.65625 4.2627Q6.97266 4.88672 6.97266 5.66016Q6.97266 6.43066 6.65918 7.06055Q6.3457 7.69043 5.69238 8.06543Q5.04199 8.4375 4.02246 8.4375L2.1123 8.4375L2.1123 11.625L1.05762 11.625ZM2.1123 7.5L3.9873 7.5Q5.04199 7.5 5.4873 6.97266Q5.93262 6.44238 5.93262 5.66016Q5.93262 4.87207 5.48438 4.35352Q5.03613 3.83496 3.97266 3.83496L2.1123 3.83496L2.1123 7.5ZM8.67694 11.625L8.67694 2.89746L11.6242 2.89746Q12.6525 2.89746 13.3058 3.2666Q13.9592 3.63574 14.2756 4.2627Q14.592 4.88672 14.592 5.66016Q14.592 6.43066 14.2785 7.06055Q13.965 7.69043 13.3117 8.06543Q12.6613 8.4375 11.6418 8.4375L9.73162 8.4375L9.73162 11.625L8.67694 11.625ZM9.73162 7.5L11.6066 7.5Q12.6613 7.5 13.1066 6.97266Q13.5519 6.44238 13.5519 5.66016Q13.5519 4.87207 13.1037 4.35352Q12.6555 3.83496 11.592 3.83496L9.73162 3.83496L9.73162 7.5ZM21.0687 5.08008Q20.9925 4.43262 20.4447 4.0752Q19.8998 3.71484 19.1088 3.71484Q18.2386 3.71484 17.7084 4.12793Q17.181 4.53809 17.181 5.16504Q17.181 5.63379 17.4681 5.9209Q17.7582 6.20801 18.1507 6.36914Q18.5463 6.52734 18.8685 6.6123L19.7562 6.85254Q20.0961 6.94043 20.515 7.09863Q20.9369 7.25684 21.3207 7.5293Q21.7074 7.79883 21.9593 8.2207Q22.2113 8.64258 22.2113 9.25488Q22.2113 9.96387 21.8422 10.5352Q21.473 11.1064 20.767 11.4434Q20.0638 11.7773 19.056 11.7773Q17.6498 11.7773 16.8236 11.1152Q15.9974 10.4502 15.9213 9.375L17.0111 9.375Q17.055 9.87012 17.3451 10.1924Q17.6381 10.5117 18.0863 10.6699Q18.5375 10.8252 19.056 10.8252Q19.6625 10.8252 20.1429 10.626Q20.6263 10.4268 20.9076 10.0723Q21.1888 9.71484 21.1888 9.2373Q21.1888 8.80371 20.9457 8.53125Q20.7025 8.25879 20.3041 8.08887Q19.9086 7.91895 19.4486 7.79004L18.3763 7.48242Q17.3509 7.18945 16.7533 6.64453Q16.1586 6.09668 16.1586 5.21484Q16.1586 4.48242 16.557 3.93457Q16.9554 3.38672 17.6293 3.08203Q18.306 2.77734 19.141 2.77734Q19.9847 2.77734 20.641 3.0791Q21.2972 3.37793 21.6839 3.89941Q22.0707 4.41797 22.0912 5.08008L21.0687 5.08008ZM23.9497 11.625L23.9497 2.89746L29.2172 2.89746L29.2172 3.83496L25.0044 3.83496L25.0044 6.78516L28.9419 6.78516L28.9419 7.72266L25.0044 7.72266L25.0044 10.6875L29.2846 10.6875L29.2846 11.625L23.9497 11.625Z" fill="#757575" transform="translate(383 7)" />
    </g>
  </g>
</svg>