<?xml version="1.0" encoding="utf-8"?>
<svg width="80.118" height="68.618" viewBox="0 0 80.118 68.618" fill="none" xmlns="http://www.w3.org/2000/svg">
  <g transform="translate(0 1.118)">
    <line x1="0" y1="0" x2="53" y2="0" fill="none" stroke-width="1" stroke="#BDBDBD" stroke-linecap="square" transform="translate(15 10)" />
    <line x1="0" y1="0" x2="53" y2="0" fill="none" stroke-width="1" stroke="#BDBDBD" stroke-linecap="square" transform="translate(15 34)" />
    <path d="M1.65527 1.20728L1.65527 4.84375L1.2146 4.84375L1.2146 1.6687L1.19263 1.6687L0.305176 2.2583L0.305176 1.81152L1.2146 1.20728L1.65527 1.20728Z" fill="#FFFFFF" transform="translate(28 18)" />
    <path d="M0.375977 4.84375L0.375977 4.52393L1.57715 3.21045Q1.78833 2.97974 1.92505 2.80884Q2.06177 2.63672 2.12769 2.48535Q2.19482 2.33276 2.19482 2.16675Q2.19482 1.87866 1.99463 1.71021Q1.79565 1.54175 1.49902 1.54175Q1.18286 1.54175 0.996094 1.73096Q0.809326 1.91895 0.809326 2.23022L0.390625 2.23022Q0.390625 1.9104 0.537109 1.6687Q0.684814 1.427 0.939941 1.29272Q1.19507 1.15723 1.51245 1.15723Q1.83228 1.15723 2.07886 1.29272Q2.32544 1.427 2.46582 1.65649Q2.6062 1.88599 2.6062 2.16675Q2.6062 2.36694 2.53418 2.55859Q2.46216 2.74902 2.28516 2.98218Q2.10938 3.21533 1.79688 3.55103L0.980225 4.42505L0.980225 4.45312L2.6709 4.45312L2.6709 4.84375L0.375977 4.84375Z" fill="#FFFFFF" transform="translate(41 21)" />
    <path d="M1.60522 4.8938Q1.25366 4.8938 0.979004 4.77295Q0.704346 4.6521 0.543213 4.43604Q0.383301 4.21997 0.369873 3.93433L0.81665 3.93433Q0.836182 4.198 1.05835 4.35059Q1.28174 4.50317 1.5979 4.50317Q1.94824 4.50317 2.17407 4.32495Q2.40112 4.14551 2.40112 3.8562Q2.40112 3.55469 2.17773 3.36548Q1.95435 3.17505 1.54175 3.17505L1.25 3.17505L1.25 2.78442L1.54175 2.78442Q1.86401 2.78442 2.06787 2.6123Q2.27295 2.44019 2.27295 2.1521Q2.27295 1.87622 2.09351 1.70898Q1.91406 1.54175 1.61255 1.54175Q1.42456 1.54175 1.25854 1.61011Q1.09253 1.67847 0.987549 1.80664Q0.882568 1.93481 0.874023 2.1167L0.447998 2.1167Q0.457764 1.83105 0.618896 1.61499Q0.78125 1.39893 1.04248 1.27808Q1.30493 1.15723 1.61987 1.15723Q1.95679 1.15723 2.19849 1.29395Q2.44019 1.42944 2.56958 1.65161Q2.69897 1.87378 2.69897 2.13013Q2.69897 2.43774 2.53784 2.65503Q2.37793 2.87109 2.10205 2.9541L2.10205 2.9834Q2.44629 3.03955 2.63916 3.27515Q2.83325 3.51074 2.83325 3.8562Q2.83325 4.15283 2.67212 4.38843Q2.51221 4.62402 2.23511 4.75952Q1.95801 4.8938 1.60522 4.8938Z" fill="#FFFFFF" transform="translate(44 47)" />
    <path d="M0.291748 4.0979L0.291748 3.73535L1.88965 1.20728L2.42188 1.20728L2.42188 3.70728L2.9187 3.70728L2.9187 4.0979L2.42188 4.0979L2.42188 4.84375L2.00317 4.84375L2.00317 4.0979L0.291748 4.0979ZM2.00317 3.70728L2.00317 1.7688L1.97388 1.7688L0.766602 3.6792L0.766602 3.70728L2.00317 3.70728Z" fill="#FFFFFF" transform="translate(65 41)" />
    <path d="M0 38L14 38C19.5242 35.8634 15.25 0 19 0C22.75 0 19.2763 7.78171 22.4535 13C23.5262 17.7748 25.4849 41.25 29 47.5C32.5151 53.75 30.514 40.625 36.514 38L53 38" fill="none" stroke-width="1" stroke="#E12D39" transform="translate(15 10)" />
    <g fill="none" stroke-width="1" stroke="#000000" transform="translate(15 0)">
      <path d="M4 8L0 0L-4 8" />
      <line x1="0" y1="67" x2="0" y2="0" />
    </g>
    <g fill="none" stroke-width="1" stroke="#000000" transform="translate(6 62)">
      <path d="M65 4L73 0L65 -4" />
      <line x1="0" y1="0" x2="73" y2="0" />
    </g>
    <path d="M3.11328 4.5293L3.11328 5.1543L0.568359 5.1543L0.568359 4.5293L3.11328 4.5293ZM4.2832 7.75L6.88672 2.60156L6.88672 2.55664L3.88672 2.55664L3.88672 1.93164L7.61328 1.93164L7.61328 2.5918L5.02344 7.75L4.2832 7.75ZM10.4432 7.83008Q9.48029 7.83008 8.94904 7.04883Q8.41974 6.26758 8.41974 4.8418Q8.41974 3.42578 8.95295 2.63867Q9.4881 1.85156 10.4432 1.85156Q11.3983 1.85156 11.9315 2.63867Q12.4666 3.42578 12.4666 4.8418Q12.4666 6.26758 11.9354 7.04883Q11.4061 7.83008 10.4432 7.83008ZM10.4432 7.20508Q11.0799 7.20508 11.4315 6.5918Q11.785 5.97656 11.785 4.8418Q11.785 3.70703 11.4295 3.08789Q11.074 2.4668 10.4432 2.4668Q9.81232 2.4668 9.45685 3.08789Q9.10139 3.70703 9.10139 4.8418Q9.10139 5.97656 9.4549 6.5918Q9.81037 7.20508 10.4432 7.20508Z" fill="#FFFFFF" transform="translate(0 42)" />
    <path d="M3.11328 4.5293L3.11328 5.1543L0.568359 5.1543L0.568359 4.5293L3.11328 4.5293ZM4.14861 6.55664L4.14861 5.97656L6.70526 1.93164L7.55682 1.93164L7.55682 5.93164L8.35174 5.93164L8.35174 6.55664L7.55682 6.55664L7.55682 7.75L6.8869 7.75L6.8869 6.55664L4.14861 6.55664ZM6.8869 5.93164L6.8869 2.83008L6.84002 2.83008L4.90838 5.88672L4.90838 5.93164L6.8869 5.93164ZM11.3182 7.83008Q10.3553 7.83008 9.82404 7.04883Q9.29474 6.26758 9.29474 4.8418Q9.29474 3.42578 9.82795 2.63867Q10.3631 1.85156 11.3182 1.85156Q12.2733 1.85156 12.8065 2.63867Q13.3416 3.42578 13.3416 4.8418Q13.3416 6.26758 12.8104 7.04883Q12.2811 7.83008 11.3182 7.83008ZM11.3182 7.20508Q11.9549 7.20508 12.3065 6.5918Q12.66 5.97656 12.66 4.8418Q12.66 3.70703 12.3045 3.08789Q11.949 2.4668 11.3182 2.4668Q10.6873 2.4668 10.3319 3.08789Q9.97639 3.70703 9.97639 4.8418Q9.97639 5.97656 10.3299 6.5918Q10.6854 7.20508 11.3182 7.20508Z" fill="#FFFFFF" transform="translate(0 28)" />
    <path d="M0.601562 7.75L0.601562 7.23828L2.52344 5.13672Q2.86133 4.76758 3.08008 4.49414Q3.29883 4.21875 3.4043 3.97656Q3.51172 3.73242 3.51172 3.4668Q3.51172 3.00586 3.19141 2.73633Q2.87305 2.4668 2.39844 2.4668Q1.89258 2.4668 1.59375 2.76953Q1.29492 3.07031 1.29492 3.56836L0.625 3.56836Q0.625 3.05664 0.859375 2.66992Q1.0957 2.2832 1.50391 2.06836Q1.91211 1.85156 2.41992 1.85156Q2.93164 1.85156 3.32617 2.06836Q3.7207 2.2832 3.94531 2.65039Q4.16992 3.01758 4.16992 3.4668Q4.16992 3.78711 4.05469 4.09375Q3.93945 4.39844 3.65625 4.77148Q3.375 5.14453 2.875 5.68164L1.56836 7.08008L1.56836 7.125L4.27344 7.125L4.27344 7.75L0.601562 7.75ZM7.40927 7.83008Q6.84677 7.83008 6.40732 7.63672Q5.96786 7.44336 5.71005 7.09766Q5.45419 6.75195 5.43271 6.29492L6.14755 6.29492Q6.1788 6.7168 6.53427 6.96094Q6.89169 7.20508 7.39755 7.20508Q7.9581 7.20508 8.31942 6.91992Q8.68271 6.63281 8.68271 6.16992Q8.68271 5.6875 8.32528 5.38477Q7.96786 5.08008 7.30771 5.08008L6.84091 5.08008L6.84091 4.45508L7.30771 4.45508Q7.82333 4.45508 8.1495 4.17969Q8.47763 3.9043 8.47763 3.44336Q8.47763 3.00195 8.19052 2.73438Q7.90341 2.4668 7.42099 2.4668Q7.12021 2.4668 6.85458 2.57617Q6.58896 2.68555 6.42099 2.89062Q6.25302 3.0957 6.23935 3.38672L5.55771 3.38672Q5.57333 2.92969 5.83114 2.58398Q6.09091 2.23828 6.50888 2.04492Q6.9288 1.85156 7.43271 1.85156Q7.97177 1.85156 8.35849 2.07031Q8.74521 2.28711 8.95224 2.64258Q9.15927 2.99805 9.15927 3.4082Q9.15927 3.90039 8.90146 4.24805Q8.6456 4.59375 8.20419 4.72656L8.20419 4.77344Q8.75497 4.86328 9.06357 5.24023Q9.37411 5.61719 9.37411 6.16992Q9.37411 6.64453 9.1163 7.02148Q8.86044 7.39844 8.41708 7.61523Q7.97372 7.83008 7.40927 7.83008Z" fill="#FFFFFF" transform="translate(3 4)" />
  </g>
</svg>